<?xml version="1.0" encoding="UTF-8"?>
<svg version="1.1" xmlns="http://www.w3.org/2000/svg" width="1024" height="1024">
<path d="M0 0 C10.75338965 11.1476806 17.1182606 23.80922068 20.30859375 38.83203125 C20.83778136 41.88073778 20.83778136 41.88073778 22 44 C22.804375 44.0825 23.60875 44.165 24.4375 44.25 C33.08490772 46.07050689 40.62135268 52.14077879 46 59 C54.37920534 72.24332454 56.16184706 84.97729381 53 100 C50.12101059 111.0236952 43.06454485 119.09487333 33.78515625 125.4296875 C26.77671605 129.38115028 20.90012566 131.6054593 12.81884766 131.73950195 C11.92492624 131.76800641 11.03100483 131.79651087 10.10999489 131.8258791 C7.07324556 131.91099122 4.03767547 131.96036897 1 132 C-0.1012043 132.01516537 -1.2024086 132.03033073 -2.33698273 132.04595566 C-10.5638699 132.14427207 -18.79042994 132.16567217 -27.01780748 132.16725707 C-29.12779397 132.16797771 -31.23777432 132.17013031 -33.34775925 132.17275429 C-40.7391678 132.18192878 -48.1305586 132.18609787 -55.52197266 132.18530273 C-62.36877733 132.18469909 -69.21550398 132.19532706 -76.06228888 132.2110464 C-81.98980276 132.22416191 -87.91729116 132.22948519 -93.84481943 132.22884732 C-97.36436455 132.22859419 -100.8838395 132.23134455 -104.4033699 132.24202538 C-108.31923704 132.25359352 -112.23499752 132.24893503 -116.15087891 132.24291992 C-117.86546295 132.25134918 -117.86546295 132.25134918 -119.61468506 132.25994873 C-133.4705706 132.20606624 -144.80245949 129.97092849 -155 120 C-165.09410229 107.68001874 -167.27805662 94.82879224 -166.23925781 79.37158203 C-165.01378761 67.22442126 -158.06995756 56.11534203 -149.29296875 47.84765625 C-139.4833032 39.94310462 -129.29350954 36.42646208 -117 35 C-116.72027344 33.97261719 -116.44054687 32.94523437 -116.15234375 31.88671875 C-110.79335458 13.02983266 -99.75572841 -1.61375436 -82.71484375 -11.58203125 C-78.30203614 -13.88685019 -73.74403645 -15.51659283 -69 -17 C-68.31164062 -17.21527344 -67.62328125 -17.43054688 -66.9140625 -17.65234375 C-43.34584897 -24.24182386 -17.635878 -16.43343177 0 0 Z M-87 13 C-87.55300781 13.56203125 -88.10601562 14.1240625 -88.67578125 14.703125 C-97.16265254 23.64432559 -102.14384633 36.37418382 -102.1875 48.75 C-102.125625 49.8225 -102.06375 50.895 -102 52 C-102.67675781 51.83113281 -103.35351562 51.66226563 -104.05078125 51.48828125 C-114.64920234 49.73357577 -125.36094037 51.83707173 -134.3984375 57.50390625 C-142.94295974 63.62132998 -148.14001816 71.62823683 -150 82 C-150.25093646 85.35511335 -150.35191442 88.65004538 -150 92 C-149.67 92.33 -149.34 92.66 -149 93 C-148.9071875 94.7634375 -148.9071875 94.7634375 -148.8125 96.5625 C-148.09422311 102.91297984 -144.05239122 106.94760878 -139.6875 111.3125 C-132.20520202 116.0106871 -124.71615203 116.41929784 -116.0703125 116.29296875 C-114.40208939 116.28660149 -114.40208939 116.28660149 -112.70016479 116.28010559 C-109.17485487 116.26342724 -105.6501344 116.22581668 -102.125 116.1875 C-99.73438336 116.17243717 -97.34375762 116.15875158 -94.953125 116.14648438 C-89.71403566 116.11709014 -84.47524614 116.07453795 -79.23635864 116.02018738 C-75.60163451 115.9873771 -71.96729338 116.00734295 -68.33250427 116.0222168 C-59.21236739 116.05943819 -50.09223832 116.08541353 -40.97204399 116.10362434 C-35.92468643 116.11405191 -30.87739669 116.12820167 -25.83007812 116.15087891 C-20.94422875 116.17268728 -16.05844451 116.18458456 -11.1725502 116.18975449 C-9.31553241 116.19343363 -7.45851796 116.20061787 -5.60152817 116.21146011 C-2.99322672 116.22608332 -0.38519164 116.22797353 2.22314453 116.22705078 C2.98088669 116.23424133 3.73862885 116.24143188 4.51933289 116.24884033 C14.2424402 116.21187884 22.14114961 114.1647289 29.625 107.75 C35.33177068 101.14216026 38.14695303 95.78121393 38.125 87 C38.12757813 85.96875 38.13015625 84.9375 38.1328125 83.875 C37.79820259 76.63167959 34.23412746 70.33298725 29.2109375 65.15625 C21.90918109 59.26676747 13.33624591 56.29537767 4 57 C4.03480469 56.44054687 4.06960938 55.88109375 4.10546875 55.3046875 C4.5947098 40.81383354 0.57504302 26.96151717 -8.4140625 15.6171875 C-8.93742188 15.08351563 -9.46078125 14.54984375 -10 14 C-10.66 14 -11.32 14 -12 14 C-12.33 13.01 -12.66 12.02 -13 11 C-33.92994326 -6.34307916 -67.85568351 -8.73138629 -87 13 Z " fill="#161616" transform="translate(284,438)"/>
<path d="M0 0 C6.65250512 5.70214724 11.18124542 13.49270717 14 21.75 C14 22.74 14 23.73 14 24.75 C12.10507994 25.08848652 10.20901534 25.42056911 8.3125 25.75 C7.25675781 25.935625 6.20101562 26.12125 5.11328125 26.3125 C2.35095938 26.70068074 -0.21742043 26.83259976 -3 26.75 C-3.495 27.74 -3.495 27.74 -4 28.75 C-4.24234375 28.15832031 -4.4846875 27.56664062 -4.734375 26.95703125 C-7.86832155 19.56814956 -10.63000501 15.05913824 -18 11.546875 C-24.45247957 8.97596517 -31.67301357 8.67275865 -38.25 11 C-46.89072449 14.78248582 -51.67993519 20.22603616 -55.3125 28.875 C-57.98241475 40.04009804 -58.05022551 50.25455928 -53 60.75 C-48.33829809 67.49458999 -43.17264271 72.08032031 -35 73.75 C-33.12675812 73.84124674 -31.25045609 73.88005514 -29.375 73.875 C-27.93253906 73.87886719 -27.93253906 73.87886719 -26.4609375 73.8828125 C-23.99525231 73.91361083 -23.99525231 73.91361083 -22 72.75 C-21.0925 72.646875 -20.185 72.54375 -19.25 72.4375 C-15.16689493 71.57376623 -13.16251117 70.50878634 -10 67.75 C-7.27437934 63.3465107 -5.0931872 58.82803084 -4 53.75 C-4.54817383 53.91749756 -5.09634766 54.08499512 -5.66113281 54.25756836 C-8.3531711 54.82435763 -10.67474781 54.76626261 -13.421875 54.62890625 C-14.95908203 54.55639648 -14.95908203 54.55639648 -16.52734375 54.48242188 C-17.59082031 54.42634766 -18.65429688 54.37027344 -19.75 54.3125 C-20.82894531 54.26029297 -21.90789063 54.20808594 -23.01953125 54.15429688 C-25.67999422 54.02480531 -28.34006452 53.88984639 -31 53.75 C-31.81684451 49.98165572 -32.03631195 46.85254985 -31.6875 43 C-31.60886719 42.03578125 -31.53023437 41.0715625 -31.44921875 40.078125 C-31.30097656 39.30984375 -31.15273438 38.5415625 -31 37.75 C-28.66672559 36.5833628 -27.41763902 36.66006213 -24.82568359 36.72827148 C-23.96494232 36.74836777 -23.10420105 36.76846405 -22.21737671 36.78916931 C-21.28712677 36.81620438 -20.35687683 36.84323944 -19.3984375 36.87109375 C-17.97103745 36.90651024 -17.97103745 36.90651024 -16.51480103 36.94264221 C-13.4680522 37.01936633 -10.42155199 37.10335303 -7.375 37.1875 C-5.31251227 37.24071192 -3.25001231 37.29345238 -1.1875 37.34570312 C3.87515816 37.47499332 8.93760505 37.61079834 14 37.75 C16.81785035 50.61021857 13.81827504 64.37655343 6.78125 75.36328125 C0.05589848 84.37466234 -9.08522788 89.35794934 -20 91.75 C-29.62964278 92.24188745 -38.98190803 92.62003947 -48 88.75 C-49.010625 88.3375 -50.02125 87.925 -51.0625 87.5 C-58.96435159 82.79251395 -64.37950303 77.74074182 -69 69.75 C-69.99 70.245 -69.99 70.245 -71 70.75 C-72 67.75 -72 67.75 -72 63.75 C-72.42906711 62.09040081 -72.91205409 60.44414783 -73.4375 58.8125 C-77.94978152 44.70889545 -76.52220975 29.10407931 -70 15.75 C-62.96444504 3.97621415 -53.12045744 -4.3046836 -39.69921875 -7.859375 C-25.45375586 -9.92094705 -11.98275917 -8.55341711 0 0 Z " fill="#161616" transform="translate(736,463.25)"/>
<path d="M0 0 C5.61 0 11.22 0 17 0 C18.28227062 3.84681187 18.01513375 7.3900956 17.87890625 11.38671875 C17.85824097 12.11105103 17.83757568 12.8353833 17.81628418 13.58166504 C17.73760349 16.28378871 17.64948745 18.98563099 17.5625 21.6875 C17.2840625 30.7521875 17.2840625 30.7521875 17 40 C31.52 40 46.04 40 61 40 C60.96050206 28.70664079 60.96050206 28.70664079 60.90991211 17.41333008 C60.90698963 15.9903979 60.90444185 14.56746488 60.90234375 13.14453125 C60.89722778 12.41439819 60.89211182 11.68426514 60.88684082 10.93200684 C60.88618236 7.06357012 61.23262971 3.83685145 62 0 C67.28 0 72.56 0 78 0 C78.942202 11.10993703 79.14757157 22.09258673 79.1328125 33.234375 C79.13348768 35.0480348 79.13445949 36.86169451 79.13571167 38.675354 C79.13717405 42.4437345 79.13507849 46.21209106 79.13037109 49.98046875 C79.12462514 54.81589496 79.12799243 59.65126624 79.13394356 64.48669052 C79.1375469 68.21661803 79.13641249 71.94653237 79.13381577 75.67646027 C79.13314841 77.46110287 79.13396827 79.24574667 79.13629532 81.03038788 C79.13882339 83.5095491 79.13498132 85.98861905 79.12939453 88.46777344 C79.13141876 89.20534882 79.13344299 89.94292419 79.13552856 90.70285034 C79.11427498 95.77145003 79.11427498 95.77145003 78 98 C73.05 97.67 68.1 97.34 63 97 C62.67 97.66 62.34 98.32 62 99 C60.43308759 94.29926276 60.5798894 89.48888495 60.375 84.5625 C60.3234375 83.51255859 60.271875 82.46261719 60.21875 81.38085938 C60.17492187 80.36958984 60.13109375 79.35832031 60.0859375 78.31640625 C60.0451709 77.39287354 60.0044043 76.46934082 59.96240234 75.51782227 C59.99764486 73.15771812 60.31834987 71.24944544 61 69 C60.34 69 59.68 69 59 69 C59.33 68.34 59.66 67.68 60 67 C60.06950541 65.45976004 60.08452357 63.91665012 60.0625 62.375 C60.05347656 61.55773437 60.04445313 60.74046875 60.03515625 59.8984375 C60.02355469 59.27195312 60.01195312 58.64546875 60 58 C55.76897412 56.81073728 51.66090919 56.87443678 47.296875 56.90234375 C46.1823999 56.90385437 46.1823999 56.90385437 45.04541016 56.90539551 C42.28025765 56.91061224 39.51512721 56.9245735 36.75 56.9375 C30.5625 56.958125 24.375 56.97875 18 57 C17.67 70.2 17.34 83.4 17 97 C13.16910297 98.91544852 8.39623884 98.00649572 4.1875 97.9375 C1.1026494 97.76967812 1.1026494 97.76967812 -1 99 C-1.1772129 87.12573633 -1.34315116 75.2513734 -1.49477577 63.37675381 C-1.56553692 57.8626463 -1.64015188 52.34864756 -1.72363281 46.8347168 C-1.80408307 41.51153229 -1.87433344 36.18830115 -1.93757248 30.86488533 C-1.96345661 28.83591837 -1.99298945 26.80699451 -2.02626419 24.7781353 C-2.07231208 21.93211582 -2.10527715 19.0862182 -2.13525391 16.23999023 C-2.16006584 14.98733871 -2.16006584 14.98733871 -2.18537903 13.7093811 C-2.19104385 12.92565628 -2.19670868 12.14193146 -2.20254517 11.3344574 C-2.2117631 10.66247031 -2.22098103 9.99048323 -2.23047829 9.2981329 C-1.91242084 6.12673531 -0.87562046 3.0646716 0 0 Z " fill="#1A1A19" transform="translate(374,456)"/>
<path d="M0 0 C5.61 0 11.22 0 17 0 C17 32.34 17 64.68 17 98 C13.99686252 99.50156874 11.20932478 99.09281204 7.875 99.0625 C6.59367188 99.05347656 5.31234375 99.04445313 3.9921875 99.03515625 C3.00476563 99.02355469 2.01734375 99.01195312 1 99 C0.34 97.02 -0.32 95.04 -1 93 C-1.68707031 93.42152344 -2.37414062 93.84304688 -3.08203125 94.27734375 C-3.98308594 94.82519531 -4.88414062 95.37304688 -5.8125 95.9375 C-6.70582031 96.48277344 -7.59914063 97.02804687 -8.51953125 97.58984375 C-14.71718144 101.11323228 -22.5550919 100.9750121 -29.421875 99.46875 C-38.26613187 96.31498399 -44.32356964 90.7283603 -48.875 82.6875 C-50 80 -50 80 -50 78 C-50.66 77.67 -51.32 77.34 -52 77 C-54.2994911 62.96197772 -52.65482285 50.1877479 -45 38 C-40.09526445 31.4877315 -34.074622 27.99435161 -26.109375 26.43359375 C-19.34514635 25.60974539 -13.17004268 25.90472942 -7 29 C-5.02 30.65 -3.04 32.3 -1 34 C-0.67 22.78 -0.34 11.56 0 0 Z M-31 47 C-36.00579541 53.84125373 -35.79385894 61.80561157 -35 70 C-33.2115471 75.55851163 -30.98413589 79.80281205 -26 83 C-20.8896176 84.7034608 -15.03904453 84.97227202 -9.86328125 83.31640625 C-4.62233348 80.57656154 -1.83320783 76.4996235 0 71 C0.62027507 61.61237533 0.88174987 53.57847421 -5.4375 46.125 C-10.5279755 41.90363007 -14.48220627 41.50564133 -21.015625 41.6171875 C-25.3987447 42.17942013 -28.01908833 43.80054642 -31 47 Z M-1 90 C0 92 0 92 0 92 Z " fill="#131313" transform="translate(887,455)"/>
<path d="M0 0 C7.18987622 5.44640838 10.64301247 14.0603515 12.0703125 22.75390625 C12.0703125 27.04390625 12.0703125 31.33390625 12.0703125 35.75390625 C-3.7696875 35.75390625 -19.6096875 35.75390625 -35.9296875 35.75390625 C-33.49965649 45.66455679 -33.49965649 45.66455679 -26.7421875 51.00390625 C-21.49065649 52.40431452 -16.76968691 52.37881171 -11.6171875 50.62890625 C-8.70345754 48.89958727 -8.70345754 48.89958727 -7.2734375 45.63671875 C-4.9296875 42.75390625 -4.9296875 42.75390625 -1.07421875 42.31640625 C0.3726651 42.43025073 1.81725443 42.57719779 3.2578125 42.75390625 C3.99451172 42.81191406 4.73121094 42.86992188 5.49023438 42.9296875 C7.3622179 43.10534741 9.22009973 43.41940451 11.0703125 43.75390625 C11.4003125 44.41390625 11.7303125 45.07390625 12.0703125 45.75390625 C8.68748909 54.28881219 3.72211586 60.74438814 -4.39453125 65.06640625 C-12.72930542 68.59124466 -22.63030257 69.53171662 -31.3046875 66.56640625 C-32.53130225 66.00027636 -33.74054045 65.39501162 -34.9296875 64.75390625 C-35.60515625 64.41359375 -36.280625 64.07328125 -36.9765625 63.72265625 C-45.76042668 58.83539347 -49.91139954 51.09321612 -52.9296875 41.75390625 C-55.38714323 31.71929535 -54.182227 20.46163568 -49.67578125 11.16796875 C-44.11815325 2.29393604 -37.52534039 -2.92258104 -27.37109375 -5.65234375 C-17.3159496 -7.38716998 -8.48694834 -5.4804383 0 0 Z M-30.9296875 11.75390625 C-32.97686754 14.93547729 -34.69508919 18.17295692 -35.9296875 21.75390625 C-35.5996875 22.41390625 -35.2696875 23.07390625 -34.9296875 23.75390625 C-30.84636911 23.78294517 -26.7630773 23.80071814 -22.6796875 23.81640625 C-21.52082031 23.82478516 -20.36195313 23.83316406 -19.16796875 23.84179688 C-18.05292969 23.84501953 -16.93789063 23.84824219 -15.7890625 23.8515625 C-14.76264648 23.85679932 -13.73623047 23.86203613 -12.67871094 23.86743164 C-10.25343094 23.76727576 -8.24271389 23.45313703 -5.9296875 22.75390625 C-6.31843789 17.3114008 -8.09521746 14.58837629 -11.9296875 10.75390625 C-17.88842873 7.21087092 -25.47842317 7.6351732 -30.9296875 11.75390625 Z " fill="#161515" transform="translate(641.9296875,487.24609375)"/>
<path d="M0 0 C6.14617186 5.22554274 9.01381669 12.08934928 10 20 C10.13080552 23.62308202 10.11642048 27.24215886 10.09765625 30.8671875 C10.0962413 31.90191193 10.09482635 32.93663635 10.09336853 34.00271606 C10.08779039 37.29350732 10.07524188 40.58422946 10.0625 43.875 C10.05748218 46.11197818 10.05291976 48.34895743 10.04882812 50.5859375 C10.03782812 56.05731508 10.02111177 61.5286526 10 67 C6.99686252 68.50156874 4.20932478 68.09281204 0.875 68.0625 C-0.40632813 68.05347656 -1.68765625 68.04445313 -3.0078125 68.03515625 C-3.99523437 68.02355469 -4.98265625 68.01195312 -6 68 C-6.66 65.69 -7.32 63.38 -8 61 C-8.825 61.763125 -9.65 62.52625 -10.5 63.3125 C-16.56633115 68.29000248 -22.62130167 69.5385707 -30.39453125 69.28125 C-37.07412676 68.5602142 -42.70273015 65.07255049 -47 60 C-50.39174211 53.93668021 -50.66112659 47.66726153 -49 41 C-46.07228704 35.25300789 -41.13283945 30.32624945 -35 28 C-34.01 28 -33.02 28 -32 28 C-31.67 27.34 -31.34 26.68 -31 26 C-28.19140625 25.5859375 -28.19140625 25.5859375 -24.5625 25.375 C-22.67337891 25.26478516 -22.67337891 25.26478516 -20.74609375 25.15234375 C-16.15916006 24.96580526 -11.58945784 24.90482691 -7 25 C-7.97207571 18.82558948 -7.97207571 18.82558948 -10.9375 13.4375 C-12.99119522 11.71410367 -12.99119522 11.71410367 -16 12 C-16 11.34 -16 10.68 -16 10 C-20.82762215 10.11569465 -24.05340296 10.25480659 -27.9375 13.3125 C-30.20128192 16.08628823 -30.20128192 16.08628823 -32 20 C-36.95 19.67 -41.9 19.34 -47 19 C-48.50276661 14.49170017 -46.87285209 11.23932412 -45 7 C-41.56281766 1.27972574 -36.61380885 -2.0435556 -30.26953125 -3.72265625 C-19.79846675 -5.76810352 -9.42241548 -5.4716132 0 0 Z M-31.0625 41.75 C-32.41519297 44.99646313 -32.37902113 47.52563963 -32 51 C-30.41339554 53.13561998 -29.36158019 53.8927462 -26.80078125 54.65234375 C-20.49490915 55.37499471 -16.20243863 54.77677035 -11 51 C-6.95902332 46.69831514 -6.8917488 42.73731377 -7 37 C-19.84349001 36.31400362 -19.84349001 36.31400362 -31.0625 41.75 Z " fill="#171717" transform="translate(512,486)"/>
<path d="M0 0 C0.33 0.66 0.66 1.32 1 2 C16.51 2 32.02 2 48 2 C48 2.99 48 3.98 48 5 C48.268125 6.03125 48.53625 7.0625 48.8125 8.125 C49.23867412 16.9325984 41.95042181 23.85453135 36.76171875 30.453125 C33.82201813 34.20126965 30.99740817 38.02900414 28.1875 41.875 C27.74390137 42.48102051 27.30030273 43.08704102 26.84326172 43.71142578 C23.86698999 47.78745395 20.92802729 51.88919687 18 56 C22.43748635 56.02896822 26.87494847 56.04678788 31.3125 56.0625 C33.20645508 56.07506836 33.20645508 56.07506836 35.13867188 56.08789062 C36.34716797 56.09111328 37.55566406 56.09433594 38.80078125 56.09765625 C40.47394409 56.10551147 40.47394409 56.10551147 42.1809082 56.11352539 C45.08052062 56.12749254 45.08052062 56.12749254 48 55 C49.22329074 58.66987221 48.88021006 61.33967822 48.5625 65.1875 C48.46066406 66.45980469 48.35882812 67.73210937 48.25390625 69.04296875 C48.17011719 70.01878906 48.08632813 70.99460937 48 72 C45.10661282 72.96446239 43.27624409 73.12655657 40.26904297 73.12939453 C39.31150116 73.13254669 38.35395935 73.13569885 37.36740112 73.13894653 C35.82042038 73.13591019 35.82042038 73.13591019 34.2421875 73.1328125 C32.65399704 73.13424759 32.65399704 73.13424759 31.03372192 73.13571167 C28.79608094 73.13639226 26.55843797 73.13454639 24.32080078 73.13037109 C20.88179127 73.12501059 17.44291174 73.13032563 14.00390625 73.13671875 C11.83333304 73.13605816 9.66275992 73.13477738 7.4921875 73.1328125 C6.45681854 73.13483673 5.42144958 73.13686096 4.35470581 73.13894653 C2.92784958 73.13421829 2.92784958 73.13421829 1.47216797 73.12939453 C0.63072235 73.12859894 -0.21072327 73.12780334 -1.07766724 73.12698364 C-3 73 -3 73 -4 72 C-5.1045057 65.97804286 -5.18726203 60.48767001 -1.875 55.19921875 C-0.16906839 52.75357226 1.65010402 50.41597968 3.51953125 48.09375 C5.62807241 45.46388449 7.31882044 42.9065291 9 40 C9.85368249 38.79708377 10.72868711 37.60899667 11.625 36.4375 C12.13546875 35.76332031 12.6459375 35.08914063 13.171875 34.39453125 C14.57522815 32.55637851 15.98215406 30.72095297 17.390625 28.88671875 C18.21881876 27.79953154 19.04694391 26.71229207 19.875 25.625 C20.65617188 24.60664063 21.43734375 23.58828125 22.2421875 22.5390625 C24.18973666 20.24062957 24.18973666 20.24062957 24 18 C23.34 18.66 22.68 19.32 22 20 C21.34 19.34 20.68 18.68 20 18 C17.57402049 17.72212332 17.57402049 17.72212332 14.7734375 17.8046875 C13.7421875 17.81113281 12.7109375 17.81757813 11.6484375 17.82421875 C10.02808594 17.84935547 10.02808594 17.84935547 8.375 17.875 C6.74304688 17.88853516 6.74304688 17.88853516 5.078125 17.90234375 C2.38519848 17.92596591 -0.30729255 17.95890444 -3 18 C-4.09506492 14.71480525 -4.09960608 12.26336585 -4.0625 8.8125 C-4.05347656 7.72582031 -4.04445313 6.63914062 -4.03515625 5.51953125 C-4.02355469 4.68808594 -4.01195312 3.85664063 -4 3 C-2.68 2.67 -1.36 2.34 0 2 C0 1.34 0 0.68 0 0 Z " fill="#151515" transform="translate(535,481)"/>
<path d="M0 0 C1.39836594 -0.00856522 1.39836594 -0.00856522 2.82498169 -0.01730347 C3.84067734 -0.01842133 4.85637299 -0.01953918 5.90284729 -0.02069092 C7.51564575 -0.02813828 7.51564575 -0.02813828 9.161026 -0.03573608 C12.71893451 -0.05034528 16.27679847 -0.05715685 19.83473206 -0.06268311 C22.30568442 -0.06843455 24.77663677 -0.07419229 27.24758911 -0.07995605 C32.42841296 -0.09046179 37.60922131 -0.0963076 42.79005432 -0.09979248 C49.43259956 -0.10528336 56.07494046 -0.12932608 62.71742153 -0.15776443 C67.82088829 -0.17637322 72.92430559 -0.18159543 78.02780342 -0.18312836 C80.47704755 -0.18615821 82.92629075 -0.19419786 85.37550163 -0.20731354 C88.79883856 -0.22434059 92.22167287 -0.22250197 95.64503479 -0.21600342 C97.16554192 -0.22982559 97.16554192 -0.22982559 98.71676636 -0.243927 C107.40000011 -0.19221047 107.40000011 -0.19221047 111.33863831 3.14044189 C112.76526049 5.99368627 112.64897698 7.97498738 112.33863831 11.14044189 C110.18773379 14.47805235 109.13451031 15.87515122 105.33863831 17.14044189 C102.46694313 17.38187512 99.61831329 17.56369948 96.74098206 17.69512939 C95.83001266 17.73717499 94.91904327 17.77922058 93.98046875 17.82254028 C81.10627976 18.34754955 68.21992247 18.29083653 55.3374176 18.27081299 C51.64570994 18.26512155 47.95407437 18.2685133 44.26236916 18.27423477 C31.02320182 18.29184913 17.78438262 18.28119845 4.55348206 17.75762939 C3.67495071 17.72726593 2.79641937 17.69690247 1.89126587 17.6656189 C-7.73112075 17.20855719 -7.73112075 17.20855719 -11.41136169 13.26544189 C-12.63213764 11.19012278 -13.24021192 9.49888063 -13.66136169 7.14044189 C-13.00136169 7.14044189 -12.34136169 7.14044189 -11.66136169 7.14044189 C-11.53761169 6.52169189 -11.41386169 5.90294189 -11.28636169 5.26544189 C-10.66136169 3.14044189 -10.66136169 3.14044189 -8.66136169 1.14044189 C-5.75009472 0.16208 -3.05648891 0.01124734 0 0 Z " fill="#121212" transform="translate(186.66136169433594,517.8595581054688)"/>
<path d="M0 0 C0.33 0.66 0.66 1.32 1 2 C9.415 1.505 9.415 1.505 18 1 C18.33 3.31 18.66 5.62 19 8 C19.74443359 7.38511719 19.74443359 7.38511719 20.50390625 6.7578125 C27.10750341 1.52004473 32.45144679 -0.34892054 41 0 C42.52491129 3.04982258 42.14361434 6.22122539 42.125 9.5625 C42.13080078 10.60954102 42.13080078 10.60954102 42.13671875 11.67773438 C42.12663994 16.87336006 42.12663994 16.87336006 41 18 C37.77280105 18.50140097 34.53770521 18.90141677 31.296875 19.3046875 C26.77377703 20.25861101 23.95699801 21.66703849 21.25 25.4375 C19.4833781 29.05907489 18.88131214 32.2078382 18.79467773 36.21777344 C18.77473251 37.03832214 18.75478729 37.85887085 18.73423767 38.70428467 C18.71752518 39.58046448 18.70081268 40.45664429 18.68359375 41.359375 C18.66281265 42.26375305 18.64203156 43.1681311 18.62062073 44.09991455 C18.5553406 46.98320055 18.49634048 49.8665761 18.4375 52.75 C18.39429429 54.70704044 18.35067935 56.66407188 18.30664062 58.62109375 C18.19891265 63.41397213 18.09967909 68.20692042 18 73 C12.06 72.67 6.12 72.34 0 72 C0 48.24 0 24.48 0 0 Z M18 9 C19 11 19 11 19 11 Z " fill="#131212" transform="translate(759,481)"/>
<path d="M0 0 C0.93879501 -0.00350464 1.87759003 -0.00700928 2.84483337 -0.01062012 C5.94285513 -0.01941049 9.04064786 -0.01359772 12.13867188 -0.00683594 C14.29431197 -0.00818336 16.44995177 -0.01012454 18.60559082 -0.01263428 C23.12136735 -0.01558189 27.63706471 -0.01129949 32.15283203 -0.00195312 C37.93999788 0.00944114 43.72697822 0.00287974 49.51413727 -0.00909805 C53.96479692 -0.01632639 58.41541263 -0.01402423 62.86607361 -0.00884247 C64.99991376 -0.00750867 67.1337579 -0.00914424 69.26759338 -0.01380157 C72.25011765 -0.01888272 75.23234182 -0.01113405 78.21484375 0 C79.09603378 -0.00404846 79.97722382 -0.00809692 80.88511658 -0.01226807 C85.1785555 0.01741185 88.78438606 0.06148806 92.60742188 2.25878906 C95.10773842 6.00926388 95.14345742 7.81735172 94.60742188 12.25878906 C92.60397412 15.08246399 91.01756158 16.95845798 87.52979851 17.70128059 C84.91943528 17.86406274 82.35486156 17.8572928 79.73999023 17.7980957 C78.75082108 17.79549744 77.76165192 17.79289917 76.74250793 17.79022217 C73.47669888 17.77486352 70.21264843 17.72287921 66.94726562 17.66894531 C64.67714409 17.64732674 62.40700621 17.62736582 60.13685608 17.60899353 C55.38117472 17.56490171 50.62614697 17.50311931 45.87084961 17.4284668 C39.77205068 17.3338013 33.67369659 17.27929939 27.57433224 17.23752689 C22.88760445 17.20165633 18.20126139 17.14645187 13.51480293 17.08517265 C11.26576344 17.05774044 9.01664856 17.035905 6.76749992 17.01973152 C3.62618558 16.99386299 0.48631386 16.94246324 -2.65454102 16.8840332 C-3.58608002 16.88120834 -4.51761902 16.87838348 -5.47738647 16.87547302 C-11.76895547 16.7201987 -11.76895547 16.7201987 -14.94261169 14.37205505 C-16.67417721 11.84837006 -17.3176753 10.32980474 -17.39257812 7.25878906 C-16.14840802 4.28660493 -15.19892988 2.70695889 -12.36242676 1.13043213 C-8.21158235 -0.08783021 -4.30464818 -0.0197769 0 0 Z " fill="#141314" transform="translate(191.392578125,581.7412109375)"/>
<path d="M0 0 C5.94 0 11.88 0 18 0 C18 23.1 18 46.2 18 70 C12.63343685 72.68328157 5.98831547 70.37426972 0 70 C0 46.9 0 23.8 0 0 Z " fill="#131313" transform="translate(808,483)"/>
<path d="M0 0 C5.28 0 10.56 0 16 0 C16 12.87 16 25.74 16 39 C31.18 39 46.36 39 62 39 C62.33 38.01 62.66 37.02 63 36 C63.33 36.99 63.66 37.98 64 39 C61.55871331 41.44128669 60.92919186 41.252187 57.58203125 41.25878906 C56.21050903 41.26824554 56.21050903 41.26824554 54.8112793 41.27789307 C53.82168213 41.2738446 52.83208496 41.26979614 51.8125 41.265625 C50.79905518 41.26753845 49.78561035 41.2694519 48.74145508 41.27142334 C46.59618888 41.27278591 44.45091447 41.26908447 42.30566406 41.26074219 C39.01348428 41.25004382 35.72185022 41.26063519 32.4296875 41.2734375 C30.34895712 41.27211592 28.26822709 41.26955355 26.1875 41.265625 C25.19790283 41.26967346 24.20830566 41.27372192 23.1887207 41.27789307 C22.27437256 41.27158875 21.36002441 41.26528442 20.41796875 41.25878906 C19.61125732 41.25719788 18.8045459 41.25560669 17.97338867 41.25396729 C16 41 16 41 14 39 C13.82467711 36.13111419 13.76862386 33.36007355 13.8046875 30.4921875 C13.8075174 29.65156769 13.81034729 28.81094788 13.81326294 27.94485474 C13.8244757 25.25475954 13.84958197 22.5649949 13.875 19.875 C13.8850284 18.05339022 13.89415449 16.23177523 13.90234375 14.41015625 C13.92441858 9.93997642 13.95895566 5.47004429 14 1 C10.04 1 6.08 1 2 1 C2 31.36 2 61.72 2 93 C5.96 93 9.92 93 14 93 C14 79.8 14 66.6 14 53 C14.66 53.33 15.32 53.66 16 54 C16 67.86 16 81.72 16 96 C10.72 95.67 5.44 95.34 0 95 C0 63.65 0 32.3 0 0 Z " fill="#060505" transform="translate(374,458)"/>
<path d="M0 0 C5.94 0 11.88 0 18 0 C18 23.1 18 46.2 18 70 C14.78658631 71.60670684 11.37041032 70.82510855 7.875 70.5625 C7.12089844 70.51029297 6.36679687 70.45808594 5.58984375 70.40429688 C3.7262063 70.27454996 1.86305004 70.13792512 0 70 C-0.05429959 68.25034642 -0.09292823 66.50020213 -0.125 64.75 C-0.15980469 63.28820312 -0.15980469 63.28820312 -0.1953125 61.796875 C0.00137219 58.9803502 0.55431084 57.39050964 2 55 C2.33 55 2.66 55 3 55 C3 59.29 3 63.58 3 68 C6.96 68 10.92 68 15 68 C15 46.22 15 24.44 15 2 C13.35 2.33 11.7 2.66 10 3 C7.69 3 5.38 3 3 3 C3 10.26 3 17.52 3 25 C2.01 24.67 1.02 24.34 0 24 C0 16.08 0 8.16 0 0 Z " fill="#222222" transform="translate(808,483)"/>
<path d="M0 0 C2.53905951 2.15820058 3.73478255 3.63523522 4.375 6.9296875 C4.60182987 10.68655715 4.23985654 12.60594997 2.25 15.875 C-0.83187008 18.78565508 -2.68547671 19.79996385 -6.875 20.4375 C-11.21112802 19.83044208 -13.00300623 18.13322076 -16 15 C-17.5625 12.125 -17.5625 12.125 -18 9 C-16.60417415 4.42479304 -15.23431843 1.38180412 -11 -1 C-6.9684488 -2.3438504 -3.83980493 -1.54519313 0 0 Z " fill="#151515" transform="translate(824,455)"/>
<path d="M0 0 C0.33 0 0.66 0 1 0 C1.35288435 3.7935068 1.28393415 5.55941253 -0.8125 8.8125 C-4.73162252 12.73162252 -9.35162211 12.31506065 -14.59765625 12.5546875 C-15.50862564 12.59673309 -16.41959503 12.63877869 -17.35816956 12.68209839 C-30.23235855 13.20710766 -43.11871584 13.15039464 -56.0012207 13.13037109 C-59.692903 13.1246797 -63.38451304 13.12805073 -67.07619286 13.13382339 C-83.40732354 13.15532416 -99.69157054 12.96234969 -116 12 C-114 10 -114 10 -112.03599358 9.75390434 C-110.82199222 9.75666972 -110.82199222 9.75666972 -109.58346558 9.75949097 C-108.6551593 9.75674164 -107.72685303 9.75399231 -106.77041626 9.75115967 C-105.23833023 9.7619455 -105.23833023 9.7619455 -103.67529297 9.77294922 C-102.06551575 9.77251114 -102.06551575 9.77251114 -100.42321777 9.77206421 C-96.86279315 9.77346169 -93.30257573 9.78904263 -89.7421875 9.8046875 C-87.27881993 9.80841614 -84.81545088 9.81126381 -82.3520813 9.81326294 C-75.85829599 9.82091111 -69.36459968 9.84056977 -62.87084961 9.8626709 C-56.24854741 9.88310386 -49.62623087 9.89225919 -43.00390625 9.90234375 C-30.00256612 9.92381453 -17.00128779 9.95758203 -4 10 C-2.31573191 6.74469192 -1.11213866 3.49529294 0 0 Z " fill="#383736" transform="translate(298,523)"/>
<path d="M0 0 C0.33 0.66 0.66 1.32 1 2 C9.415 1.505 9.415 1.505 18 1 C18.33 4.63 18.66 8.26 19 12 C18.01 12.495 18.01 12.495 17 13 C17 9.7 17 6.4 17 3 C11.72 3 6.44 3 1 3 C1.33 20.16 1.66 37.32 2 55 C2.33 55 2.66 55 3 55 C3 59.95 3 64.9 3 70 C7.29 70 11.58 70 16 70 C16.33 57.46 16.66 44.92 17 32 C17.33 32 17.66 32 18 32 C18 45.53 18 59.06 18 73 C12.06 72.67 6.12 72.34 0 72 C0 48.24 0 24.48 0 0 Z " fill="#383837" transform="translate(759,481)"/>
<path d="M0 0 C5.61 0 11.22 0 17 0 C17 32.34 17 64.68 17 98 C13.99686252 99.50156874 11.20932478 99.09281204 7.875 99.0625 C5.95300781 99.04896484 5.95300781 99.04896484 3.9921875 99.03515625 C3.00476563 99.02355469 2.01734375 99.01195312 1 99 C-1 92.375 -1 92.375 -1 89 C-0.34 89 0.32 89 1 89 C1.99 92.465 1.99 92.465 3 96 C7.29 96.33 11.58 96.66 16 97 C16 65.32 16 33.64 16 1 C11.05 1 6.1 1 1 1 C1 13.21 1 25.42 1 38 C-1.51622787 34.2256582 -1.16314837 31.39778849 -0.9765625 27.05078125 C-0.95153656 26.27816452 -0.92651062 25.50554779 -0.90072632 24.70951843 C-0.81859648 22.2433946 -0.72198125 19.77808012 -0.625 17.3125 C-0.56675317 15.64000695 -0.50945004 13.96748075 -0.453125 12.29492188 C-0.31479831 8.19597658 -0.15689857 4.09844496 0 0 Z " fill="#494949" transform="translate(887,455)"/>
<path d="M0 0 C0.99 0.33 1.98 0.66 3 1 C14.2714502 2.19520532 25.68156607 2.46482254 37 3 C37 3.33 37 3.66 37 4 C6.64 4 -23.72 4 -55 4 C-55.33 3.34 -55.66 2.68 -56 2 C-50.75733801 1.82948492 -45.51448653 1.66931177 -40.27124023 1.51782227 C-38.49576779 1.46517419 -36.72037003 1.4099291 -34.94506836 1.35180664 C-23.22565667 0.97033697 -11.69252082 1.08620915 0 2 C0 1.34 0 0.68 0 0 Z " fill="#0D0D0D" transform="translate(207,552)"/>
<path d="M0 0 C14.19 0 28.38 0 43 0 C42.67 0.66 42.34 1.32 42 2 C21.705 1.505 21.705 1.505 1 1 C1.33 4.63 1.66 8.26 2 12 C14.87 12.495 14.87 12.495 28 13 C29.07349791 17.29399165 28.79682816 18.19495213 27 22 C26.67 22 26.34 22 26 22 C26 19.69 26 17.38 26 15 C25.17097168 15.25124634 25.17097168 15.25124634 24.32519531 15.50756836 C21.70390217 16.06270782 19.47146459 16.01885571 16.796875 15.87890625 C15.8171875 15.83056641 14.8375 15.78222656 13.828125 15.73242188 C12.30445313 15.64831055 12.30445313 15.64831055 10.75 15.5625 C9.71875 15.51029297 8.6875 15.45808594 7.625 15.40429688 C5.0830571 15.27484608 2.54148636 15.13812426 0 15 C0 10.05 0 5.1 0 0 Z " fill="#0C0B0B" transform="translate(706,502)"/>
<path d="M0 0 C0.99 0.33 1.98 0.66 3 1 C4.00122171 4.00366514 4.12112011 5.97739593 4.11352539 9.11401367 C4.11344986 10.15486618 4.11337433 11.19571869 4.11329651 12.26811218 C4.10813522 13.39006485 4.10297394 14.51201752 4.09765625 15.66796875 C4.0962413 16.81791824 4.09482635 17.96786774 4.09336853 19.15266418 C4.08776429 22.83096908 4.07521104 26.50921345 4.0625 30.1875 C4.05748555 32.67903558 4.05292255 35.17057211 4.04882812 37.66210938 C4.03779347 43.77476029 4.02105118 49.88737582 4 56 C1.03 56 -1.94 56 -5 56 C-5 55.67 -5 55.34 -5 55 C-2.69 55 -0.38 55 2 55 C1.88211187 48.13138974 1.75728707 41.26293041 1.62768555 34.39453125 C1.58442801 32.05894819 1.54274658 29.72333538 1.50268555 27.38769531 C1.44476031 24.02660158 1.38113014 20.66565634 1.31640625 17.3046875 C1.29969376 16.26384003 1.28298126 15.22299255 1.26576233 14.15060425 C1.16786507 9.33769726 0.99074079 4.73158058 0 0 Z " fill="#0C0B0C" transform="translate(517,496)"/>
<path d="M0 0 C0.66 0 1.32 0 2 0 C3.22329074 3.66987221 2.88021006 6.33967822 2.5625 10.1875 C2.46066406 11.45980469 2.35882812 12.73210938 2.25390625 14.04296875 C2.17011719 15.01878906 2.08632813 15.99460937 2 17 C-0.80537303 17.93512434 -2.48165364 18.12182907 -5.37963867 18.11352539 C-6.26032516 18.11344986 -7.14101166 18.11337433 -8.04838562 18.11329651 C-8.99534805 18.10813522 -9.94231049 18.10297394 -10.91796875 18.09765625 C-11.89034988 18.0962413 -12.86273102 18.09482635 -13.86457825 18.09336853 C-16.97225004 18.08776817 -20.07984996 18.07521562 -23.1875 18.0625 C-25.29361875 18.05748505 -27.39973863 18.05292213 -29.50585938 18.04882812 C-34.67060064 18.03779862 -39.83528813 18.02053375 -45 18 C-45.33 17.34 -45.66 16.68 -46 16 C-30.49 16 -14.98 16 1 16 C1 11.71 1 7.42 1 3 C-0.42054688 3.17402344 -1.84109375 3.34804688 -3.3046875 3.52734375 C-8.96577909 4.09345291 -14.4561227 3.90884292 -20.125 3.5625 C-21.08148437 3.51029297 -22.03796875 3.45808594 -23.0234375 3.40429688 C-25.34943419 3.27636706 -27.67479719 3.14151455 -30 3 C-29.67 2.34 -29.34 1.68 -29 1 C-27.73555054 1.00785522 -27.73555054 1.00785522 -26.44555664 1.01586914 C-23.32772064 1.03287826 -20.20990823 1.04543406 -17.09204102 1.05493164 C-15.74079614 1.05997057 -14.38955674 1.06680177 -13.03833008 1.07543945 C-11.09979566 1.08752419 -9.161222 1.09269828 -7.22265625 1.09765625 C-6.05484619 1.10289307 -4.88703613 1.10812988 -3.68383789 1.11352539 C-1.08108449 1.30661495 -1.08108449 1.30661495 0 0 Z " fill="#252424" transform="translate(581,536)"/>
<path d="M0 0 C-0.33 0.66 -0.66 1.32 -1 2 C-19.15 2 -37.3 2 -56 2 C-55.67 1.34 -55.34 0.68 -55 0 C-36.59754778 -1.19615939 -18.40270923 -0.77019975 0 0 Z " fill="#060606" transform="translate(240,519)"/>
<path d="M0 0 C0.66 0 1.32 0 2 0 C2.07419134 4.21749219 2.1286204 8.43463811 2.16479492 12.65258789 C2.17987589 14.08722552 2.2003438 15.52181708 2.22631836 16.95629883 C2.26273437 19.01915859 2.27973243 21.08140858 2.29296875 23.14453125 C2.3086792 24.38565674 2.32438965 25.62678223 2.34057617 26.90551758 C2 30 2 30 0.48168945 31.9284668 C-0.25174683 32.45887573 -0.25174683 32.45887573 -1 33 C-1.02469081 28.6217488 -1.04285557 24.24353433 -1.05493164 19.86523438 C-1.05996514 18.37531834 -1.06679242 16.88540726 -1.07543945 15.39550781 C-1.08754805 13.25584696 -1.09323807 11.11625132 -1.09765625 8.9765625 C-1.10289307 7.68830566 -1.10812988 6.40004883 -1.11352539 5.07275391 C-1 2 -1 2 0 0 Z " fill="#262525" transform="translate(809,508)"/>
<path d="M0 0 C10.56 0 21.12 0 32 0 C31.67 0.99 31.34 1.98 31 3 C20.77 2.67 10.54 2.34 0 2 C0 1.34 0 0.68 0 0 Z " fill="#090909" transform="translate(392,510)"/>
<path d="M0 0 C10.93286835 -0.6277245 10.93286835 -0.6277245 15.1875 1.875 C19.14315647 6.51266621 18.06879374 11.08373852 18 17 C14.37 17 10.74 17 7 17 C7 16.67 7 16.34 7 16 C10.3 16 13.6 16 17 16 C16.02141592 9.79625917 16.02141592 9.79625917 13.0625 4.4375 C11.00880478 2.71410367 11.00880478 2.71410367 8 3 C8 2.34 8 1.68 8 1 C5.36 1 2.72 1 0 1 C0 0.67 0 0.34 0 0 Z " fill="#323131" transform="translate(488,495)"/>
<path d="M0 0 C-0.33 9.24 -0.66 18.48 -1 28 C-1.66 28 -2.32 28 -3 28 C-3 19.09 -3 10.18 -3 1 C-1 0 -1 0 0 0 Z " fill="#282827" transform="translate(438,460)"/>
<path d="M0 0 C0 0.99 0 1.98 0 3 C-9.04075456 5.6877919 -17.7504357 4.79404612 -27 4 C-26.67 3.34 -26.34 2.68 -26 2 C-25.02160156 2.02320313 -24.04320312 2.04640625 -23.03515625 2.0703125 C-15.19389296 2.17825516 -7.5684688 0 0 0 Z " fill="#252323" transform="translate(306,551)"/>
<path d="M0 0 C0.82638376 2.89234315 1 4.88742431 1 8 C2.15628906 7.98259766 2.15628906 7.98259766 3.3359375 7.96484375 C4.33882813 7.95582031 5.34171875 7.94679688 6.375 7.9375 C7.37273437 7.92589844 8.37046875 7.91429687 9.3984375 7.90234375 C12 8 12 8 14 9 C13.67 7.35 13.34 5.7 13 4 C13.99 3.34 14.98 2.68 16 2 C16.99 2.33 17.98 2.66 19 3 C18.54625 3.5775 18.0925 4.155 17.625 4.75 C15.77047097 7.1905049 15.77047097 7.1905049 14 11 C9.05 10.67 4.1 10.34 -1 10 C-2.31223496 6.06329512 -1.24296256 3.87511856 0 0 Z " fill="#262525" transform="translate(466,495)"/>
<path d="M0 0 C0.33 0 0.66 0 1 0 C1.01417969 0.82242188 1.02835938 1.64484375 1.04296875 2.4921875 C1.37187387 10.19034511 2.27873133 16.70497511 7 23 C10.08529282 25.17628715 10.08529282 25.17628715 13 26 C11.02 26.99 11.02 26.99 9 28 C2.13309353 22.62589928 2.13309353 22.62589928 1 19 C0.875 16.25 0.875 16.25 1 14 C0.34 13.67 -0.32 13.34 -1 13 C-0.67 8.71 -0.34 4.42 0 0 Z " fill="#242323" transform="translate(851,512)"/>
<path d="M0 0 C0.66 0 1.32 0 2 0 C2 3.96 2 7.92 2 12 C-7.57 12 -17.14 12 -27 12 C-27 11.67 -27 11.34 -27 11 C-18.02243049 9.6699897 -9.05168034 9.91211961 0 10 C0 6.7 0 3.4 0 0 Z " fill="#090808" transform="translate(651,510)"/>
<path d="M0 0 C0.66 0.99 1.32 1.98 2 3 C1.4225 3.7425 0.845 4.485 0.25 5.25 C-2.95931189 9.99519687 -4.34795205 15.56933173 -6 21 C-6.66 21 -7.32 21 -8 21 C-7.72515803 13.85410873 -5.19871066 5.19871066 0 0 Z " fill="#1A1A1A" transform="translate(670,473)"/>
<path d="M0 0 C2.53736271 -0.3062852 4.77916926 -0.41846993 7.3125 -0.375 C8.62863281 -0.38273438 9.94476563 -0.39046875 11.30078125 -0.3984375 C15.06929345 0.0074635 16.97694945 0.78972319 20 3 C19.67 3.66 19.34 4.32 19 5 C18.01 4.34 17.02 3.68 16 3 C13.97078331 2.72598982 13.97078331 2.72598982 11.76953125 2.8046875 C10.96708984 2.81113281 10.16464844 2.81757812 9.33789062 2.82421875 C8.50451172 2.84097656 7.67113281 2.85773437 6.8125 2.875 C5.5450293 2.88853516 5.5450293 2.88853516 4.25195312 2.90234375 C2.16784757 2.92589297 0.08388783 2.96176353 -2 3 C-1.34 2.01 -0.68 1.02 0 0 Z " fill="#1F1F1E" transform="translate(278,518)"/>
<path d="M0 0 C0.66 0 1.32 0 2 0 C3.41445296 8.48671775 3.15625407 15.68302002 1 24 C0.67 24 0.34 24 0 24 C0 16.08 0 8.16 0 0 Z " fill="#0E0D0D" transform="translate(450,464)"/>
<path d="M0 0 C1 3 1 3 -0.375 6.5625 C-3.08975763 14.00019212 -2.75510678 22.17186148 -3 30 C-3.33 30 -3.66 30 -4 30 C-4.08811914 26.66683723 -4.14076197 23.33397953 -4.1875 20 C-4.22520508 18.59814453 -4.22520508 18.59814453 -4.26367188 17.16796875 C-4.32792947 11.04207845 -3.56454882 6.5812851 -1 1 C-0.67 0.67 -0.34 0.34 0 0 Z " fill="#2D2D2D" transform="translate(122,506)"/>
<path d="M0 0 C0.99 0 1.98 0 3 0 C4.5703125 2.01171875 4.5703125 2.01171875 6.125 4.6875 C6.64320313 5.55761719 7.16140625 6.42773438 7.6953125 7.32421875 C8.9651306 9.9284864 9.57847093 12.14696786 10 15 C6.71211176 11.88983545 4.16264012 8.98381075 2 5 C1.01 5.495 1.01 5.495 0 6 C-1 3 -1 3 0 0 Z " fill="#20201F" transform="translate(665,528)"/>
<path d="M0 0 C0.33 0 0.66 0 1 0 C2.35857757 7.64199882 2.72982123 15.39427807 1 23 C0.67 23 0.34 23 0 23 C-1.95685738 15.41717766 -0.97295791 7.66204356 0 0 Z " fill="#191919" transform="translate(661,494)"/>
<path d="M0 0 C1.93554725 2.23411571 3.4152033 4.48296995 5 7 C4.34 7.66 3.68 8.32 3 9 C2.443125 7.8553125 2.443125 7.8553125 1.875 6.6875 C-0.51133862 3.26708131 -2.06280986 2.40613933 -6 1 C-9.66019839 0.48071566 -13.30909415 0.190456 -17 0 C-17 -0.33 -17 -0.66 -17 -1 C-4.60592914 -2.63195951 -4.60592914 -2.63195951 0 0 Z " fill="#2A2928" transform="translate(881,497)"/>
<path d="M0 0 C3.5625 -0.25 3.5625 -0.25 7 0 C7.33 0.33 7.66 0.66 8 1 C9.55948542 1.15686249 11.12542668 1.25076639 12.69140625 1.31640625 C14.10776367 1.37924805 14.10776367 1.37924805 15.55273438 1.44335938 C17.04256836 1.50233398 17.04256836 1.50233398 18.5625 1.5625 C20.05813477 1.62727539 20.05813477 1.62727539 21.58398438 1.69335938 C24.0558415 1.79980298 26.5278031 1.90181928 29 2 C29 2.33 29 2.66 29 3 C18.77 3 8.54 3 -2 3 C-1.34 2.01 -0.68 1.02 0 0 Z " fill="#080808" transform="translate(247,553)"/>
<path d="M0 0 C0.99 0.33 1.98 0.66 3 1 C3 1.66 3 2.32 3 3 C2.34 3 1.68 3 1 3 C1.12375 4.11375 1.12375 4.11375 1.25 5.25 C1 8 1 8 -0.875 10.3125 C-3 12 -3 12 -5 12 C-5 12.66 -5 13.32 -5 14 C-5.99 13.67 -6.98 13.34 -8 13 C-7.4225 12.22914063 -6.845 11.45828125 -6.25 10.6640625 C-5.13625 9.15972656 -5.13625 9.15972656 -4 7.625 C-3.2575 6.62726562 -2.515 5.62953125 -1.75 4.6015625 C0.1860485 2.24598283 0.1860485 2.24598283 0 0 Z " fill="#1C1C1C" transform="translate(544,520)"/>
<path d="M0 0 C-1.26831693 0.81642254 -2.53975931 1.62799105 -3.8125 2.4375 C-4.87404297 3.11619141 -4.87404297 3.11619141 -5.95703125 3.80859375 C-9.9276684 6.12416609 -13.17876082 6.10714098 -17.6875 6.0625 C-19.45673828 6.04896484 -19.45673828 6.04896484 -21.26171875 6.03515625 C-22.16535156 6.02355469 -23.06898438 6.01195312 -24 6 C-24 5.67 -24 5.34 -24 5 C-20.37 5 -16.74 5 -13 5 C-13 4.34 -13 3.68 -13 3 C-11.40084119 2.30093058 -9.79544955 1.61610532 -8.1875 0.9375 C-7.29417969 0.55464844 -6.40085937 0.17179688 -5.48046875 -0.22265625 C-3 -1 -3 -1 0 0 Z " fill="#343332" transform="translate(884,549)"/>
<path d="M0 0 C0.66 0 1.32 0 2 0 C2 4.95 2 9.9 2 15 C1.01 14.67 0.02 14.34 -1 14 C-1.02685938 11.85423363 -1.04633088 9.70837355 -1.0625 7.5625 C-1.07410156 6.36753906 -1.08570313 5.17257812 -1.09765625 3.94140625 C-1 1 -1 1 0 0 Z " fill="#242322" transform="translate(532,539)"/>
<path d="M0 0 C6.59346009 1.23627377 10.24477955 4.38064299 15 9 C14.67 9.66 14.34 10.32 14 11 C13.34 11 12.68 11 12 11 C11.278125 10.2575 10.55625 9.515 9.8125 8.75 C6.69172343 5.69857402 3.83544663 4.03053057 0 2 C0 1.34 0 0.68 0 0 Z " fill="#1F1E1E" transform="translate(632,483)"/>
<path d="M0 0 C2.64680904 0.11339204 5.29177518 0.24012873 7.9375 0.375 C9.06961914 0.42140625 9.06961914 0.42140625 10.22460938 0.46875 C12.15507395 0.5726315 14.07942081 0.77895614 16 1 C16.33 1.66 16.66 2.32 17 3 C16.06553465 5.03144641 15.06775224 7.03533587 14 9 C13.67 9 13.34 9 13 9 C13 7.35 13 5.7 13 4 C12.39671875 3.95101562 11.7934375 3.90203125 11.171875 3.8515625 C10.37265625 3.77679687 9.5734375 3.70203125 8.75 3.625 C7.96109375 3.55539062 7.1721875 3.48578125 6.359375 3.4140625 C3.914123 2.98492887 2.15163097 2.21399362 0 1 C0 0.67 0 0.34 0 0 Z " fill="#282727" transform="translate(637,530)"/>
<path d="M0 0 C5.625 -0.25 5.625 -0.25 9 2 C11.32108669 2.70812814 13.65377147 3.38024152 16 4 C16 4.66 16 5.32 16 6 C9.79011871 5.55643705 5.39459439 4.08467498 0 1 C0 0.67 0 0.34 0 0 Z " fill="#232322" transform="translate(682,548)"/>
<path d="M0 0 C2.81870287 2.81870287 2.7303841 5.09056945 3 9 C2.0625 11.4375 2.0625 11.4375 1 13 C0.34 13 -0.32 13 -1 13 C-1.02686553 11.02090602 -1.04633375 9.04171029 -1.0625 7.0625 C-1.07410156 5.96035156 -1.08570313 4.85820312 -1.09765625 3.72265625 C-1 1 -1 1 0 0 Z " fill="#222121" transform="translate(581,484)"/>
<path d="M0 0 C0.99 0 1.98 0 3 0 C4.33333333 2.66666667 5.66666667 5.33333333 7 8 C7.39445313 8.70640625 7.78890625 9.4128125 8.1953125 10.140625 C8.46085938 10.75421875 8.72640625 11.3678125 9 12 C8.67 12.66 8.34 13.32 8 14 C4.39363961 9.53174216 1.41963409 5.67853635 0 0 Z " fill="#232222" transform="translate(122,545)"/>
<path d="M0 0 C0.66 0 1.32 0 2 0 C1.67 6.27 1.34 12.54 1 19 C0.67 19 0.34 19 0 19 C-1.19826732 13.45801366 -2.62299724 5.24599449 0 0 Z " fill="#1D1C1C" transform="translate(749,502)"/>
<path d="M0 0 C0.66 0 1.32 0 2 0 C2.66 2.31 3.32 4.62 4 7 C8.62 7 13.24 7 18 7 C17.67 7.99 17.34 8.98 17 10 C12.05 10 7.1 10 2 10 C0 3 0 3 0 0 Z " fill="#2C2B29" transform="translate(886,544)"/>
<path d="M0 0 C5.40489519 1.52012677 8.98492628 5.27385218 13 9 C12.34 9.66 11.68 10.32 11 11 C3.07765152 4.32386364 3.07765152 4.32386364 0 1 C0 0.67 0 0.34 0 0 Z " fill="#222221" transform="translate(314,485)"/>
<path d="M0 0 C4.1375105 2.5389269 7.35715148 4.87715631 10 9 C9.67 9.99 9.34 10.98 9 12 C8.278125 11.113125 7.55625 10.22625 6.8125 9.3125 C4.36007904 6.36258793 1.75065212 3.67206206 -1 1 C-0.67 0.67 -0.34 0.34 0 0 Z " fill="#232323" transform="translate(267,444)"/>
<path d="M0 0 C0.33 0 0.66 0 1 0 C1.06058594 1.12019531 1.12117187 2.24039062 1.18359375 3.39453125 C1.26801424 4.86719984 1.35266149 6.33985544 1.4375 7.8125 C1.47681641 8.55048828 1.51613281 9.28847656 1.55664062 10.04882812 C1.74381035 13.23071342 1.98720793 15.96162378 3 19 C2.5625 21.6875 2.5625 21.6875 2 24 C1.34 23.67 0.68 23.34 0 23 C-1.10774296 15.36138985 -1.39683376 7.60498381 0 0 Z " fill="#323130" transform="translate(835,509)"/>
<path d="M0 0 C3.94120709 0.56302958 6.7508723 1.6791945 10 4 C10 4.66 10 5.32 10 6 C11.32 6.33 12.64 6.66 14 7 C13.01 7.495 13.01 7.495 12 8 C9.43359375 6.85546875 9.43359375 6.85546875 6.4375 5.1875 C4.95056641 4.37345703 4.95056641 4.37345703 3.43359375 3.54296875 C1 2 1 2 0 0 Z " fill="#272626" transform="translate(599,546)"/>
<path d="M0 0 C0.66 0.33 1.32 0.66 2 1 C3.2194696 6.03693964 3.16321305 10.9594101 2 16 C1.67 16 1.34 16 1 16 C0.93941406 15.37351562 0.87882812 14.74703125 0.81640625 14.1015625 C0.73261719 13.28429687 0.64882813 12.46703125 0.5625 11.625 C0.48128906 10.81289063 0.40007812 10.00078125 0.31640625 9.1640625 C0.10909886 6.95727195 0.10909886 6.95727195 -1 5 C-0.72057545 3.32345271 -0.39171753 1.65391846 0 0 Z " fill="#262525" transform="translate(321,513)"/>
<path d="M0 0 C0.99 0.66 1.98 1.32 3 2 C2.21625 2.309375 1.4325 2.61875 0.625 2.9375 C-3.19261016 5.93705084 -3.34734749 9.35350378 -4 14 C-4.33 14 -4.66 14 -5 14 C-5.72936048 10.95657765 -6.23574867 8.13283784 -6 5 C-4.23893579 2.62662731 -2.5475733 1.61173005 0 0 Z " fill="#2B2A2B" transform="translate(484,523)"/>
<path d="M0 0 C-0.33 0.66 -0.66 1.32 -1 2 C-5.95 2 -10.9 2 -16 2 C-16 1.67 -16 1.34 -16 1 C-14.27327966 0.63409254 -12.54346345 0.28277805 -10.8125 -0.0625 C-9.36810547 -0.35833984 -9.36810547 -0.35833984 -7.89453125 -0.66015625 C-4.96389138 -1.00423947 -2.83692932 -0.74164697 0 0 Z " fill="#0B0B0B" transform="translate(256,519)"/>
<path d="M0 0 C0.33 0.66 0.66 1.32 1 2 C-9.20100503 4.63819095 -9.20100503 4.63819095 -13 5 C-13.66 4.34 -14.32 3.68 -15 3 C-9.97350697 1.42922093 -5.23880078 0.55145271 0 0 Z " fill="#2C2B2B" transform="translate(167,473)"/>
<path d="M0 0 C-1.59915881 0.69906942 -3.20455045 1.38389468 -4.8125 2.0625 C-5.70582031 2.44535156 -6.59914063 2.82820312 -7.51953125 3.22265625 C-10 4 -10 4 -13 3 C-11.65543858 0.31087717 -10.42588619 0.2108218 -7.625 -0.75 C-6.83351563 -1.03359375 -6.04203125 -1.3171875 -5.2265625 -1.609375 C-3 -2 -3 -2 0 0 Z " fill="#212120" transform="translate(730,550)"/>
<path d="M0 0 C0.33 0 0.66 0 1 0 C1.24878997 2.43694274 1.47463404 4.87238389 1.6875 7.3125 C1.79674805 8.34793945 1.79674805 8.34793945 1.90820312 9.40429688 C2.33135078 14.55674183 2.33135078 14.55674183 0.51953125 16.98046875 C0.01808594 17.31691406 -0.48335937 17.65335938 -1 18 C-1.33 17.34 -1.66 16.68 -2 16 C-1.67 15.01 -1.34 14.02 -1 13 C-0.77548542 10.77425665 -0.59217122 8.54418481 -0.4375 6.3125 C-0.35371094 5.13300781 -0.26992188 3.95351563 -0.18359375 2.73828125 C-0.12300781 1.83464844 -0.06242188 0.93101562 0 0 Z " fill="#363534" transform="translate(887,513)"/>
<path d="M0 0 C0.33 0.99 0.66 1.98 1 3 C-0.43359375 5.48046875 -0.43359375 5.48046875 -2.4375 8.1875 C-3.09621094 9.08855469 -3.75492188 9.98960937 -4.43359375 10.91796875 C-5.20896484 11.94857422 -5.20896484 11.94857422 -6 13 C-6.33 12.01 -6.66 11.02 -7 10 C-5.56640625 7.51953125 -5.56640625 7.51953125 -3.5625 4.8125 C-2.90378906 3.91144531 -2.24507812 3.01039063 -1.56640625 2.08203125 C-1.04949219 1.39496094 -0.53257812 0.70789063 0 0 Z " fill="#1A1A1A" transform="translate(568,512)"/>
<path d="M0 0 C0.33 0 0.66 0 1 0 C2.2982126 5.76081841 3.25706972 11.08739655 3 17 C0.19521487 14.19521487 0.03891639 12.11456528 -0.09765625 8.203125 C-0.08605469 7.22859375 -0.07445312 6.2540625 -0.0625 5.25 C-0.05347656 4.26515625 -0.04445313 3.2803125 -0.03515625 2.265625 C-0.02355469 1.51796875 -0.01195312 0.7703125 0 0 Z " fill="#0C0C0C" transform="translate(676,502)"/>
<path d="M0 0 C-0.763125 0.28875 -1.52625 0.5775 -2.3125 0.875 C-5.15029308 1.96269013 -5.15029308 1.96269013 -8 4 C-10.32387947 4.39387788 -12.65793749 4.73486085 -15 5 C-10.87384475 1.53402959 -5.43913747 -2.39322049 0 0 Z " fill="#282827" transform="translate(698,457)"/>
<path d="M0 0 C1.485 0.99 1.485 0.99 3 2 C2.67 6.29 2.34 10.58 2 15 C1.67 15 1.34 15 1 15 C-0.03590199 9.94997778 -0.10251672 5.12583611 0 0 Z " fill="#2F2F2E" transform="translate(588,514)"/>
<path d="M0 0 C0.66 0.33 1.32 0.66 2 1 C-0.49825283 4.21203935 -3.0702992 7.17493137 -6 10 C-6.66 9.34 -7.32 8.68 -8 8 C-5.36 5.36 -2.72 2.72 0 0 Z " fill="#272727" transform="translate(137,484)"/>
<path d="M0 0 C-3.20380017 2.13586678 -4.01939967 2.23132175 -7.6875 2.125 C-8.89986328 2.09792969 -8.89986328 2.09792969 -10.13671875 2.0703125 C-11.05904297 2.03550781 -11.05904297 2.03550781 -12 2 C-11.67 1.01 -11.34 0.02 -11 -1 C-6.74938644 -2.41687119 -4.28148375 -1.19320039 0 0 Z " fill="#252624" transform="translate(824,455)"/>
<path d="M0 0 C0.33 0 0.66 0 1 0 C1.33 2.97 1.66 5.94 2 9 C1.01 9.33 0.02 9.66 -1 10 C-1.66 8.02 -2.32 6.04 -3 4 C-2.34 4 -1.68 4 -1 4 C-0.67 2.68 -0.34 1.36 0 0 Z " fill="#242323" transform="translate(176,521)"/>
<path d="M0 0 C3 3.75 3 3.75 3 6 C5.97 6.495 5.97 6.495 9 7 C8.01 7.66 7.02 8.32 6 9 C2.3125 8.125 2.3125 8.125 -1 7 C-0.67 4.69 -0.34 2.38 0 0 Z " fill="#353434" transform="translate(303,476)"/>
<path d="M0 0 C0.66 0.99 1.32 1.98 2 3 C-1.625 8.875 -1.625 8.875 -5 10 C-3.66511872 6.40608886 -2.03977277 3.24509304 0 0 Z " fill="#222221" transform="translate(670,473)"/>
<path d="M0 0 C0.721875 0.61875 1.44375 1.2375 2.1875 1.875 C4.78381938 3.83666353 6.94671666 4.95316 10 6 C8.02 6.99 8.02 6.99 6 8 C3 6.25 3 6.25 0 4 C0 2.68 0 1.36 0 0 Z " fill="#242323" transform="translate(608,533)"/>
<path d="M0 0 C2.97 1.65 5.94 3.3 9 5 C7.02 5.99 7.02 5.99 5 7 C3.02 5.68 1.04 4.36 -1 3 C-0.67 2.01 -0.34 1.02 0 0 Z " fill="#222121" transform="translate(688,531)"/>
<path d="M0 0 C0.66 0 1.32 0 2 0 C1.33501617 4.38889325 -0.18757677 7.9811485 -2 12 C-2.33 12 -2.66 12 -3 12 C-3.34833144 7.12335991 -2.41685712 4.22949995 0 0 Z " fill="#201F20" transform="translate(138,503)"/>
<path d="M0 0 C1.9375 0.8125 1.9375 0.8125 4 2 C4.33 2.99 4.66 3.98 5 5 C7.31 5.33 9.62 5.66 12 6 C12 6.33 12 6.66 12 7 C9.06552319 7.34934248 6.85632498 7.51495218 4.265625 5.95703125 C2.625 4.625 2.625 4.625 0 2 C0 1.34 0 0.68 0 0 Z " fill="#2E2E2D" transform="translate(808,468)"/>
<path d="M0 0 C2.74060659 2.74060659 3.21038333 5.24932082 4 9 C3.01 10.485 3.01 10.485 2 12 C1.01 8.37 0.02 4.74 -1 1 C-0.67 0.67 -0.34 0.34 0 0 Z " fill="#252525" transform="translate(283,462)"/>
<path d="M0 0 C3.40320742 1.01176437 4.75725331 1.64843582 6.8125 4.625 C7.204375 5.40875 7.59625 6.1925 8 7 C7.01 7 6.02 7 5 7 C4.67 6.01 4.34 5.02 4 4 C1.99983534 2.79117904 1.99983534 2.79117904 0 2 C0 1.34 0 0.68 0 0 Z " fill="#1E1D1D" transform="translate(279,436)"/>
<path d="M0 0 C0.66 0.33 1.32 0.66 2 1 C0.4924618 5.52261461 -3.07448874 7.01843387 -7.19921875 9.12109375 C-7.79347656 9.41113281 -8.38773438 9.70117188 -9 10 C-8.06409496 8.8944811 -7.12620142 7.79064547 -6.1875 6.6875 C-5.66542969 6.07261719 -5.14335937 5.45773437 -4.60546875 4.82421875 C-3.12827531 3.14575321 -1.59960869 1.56117966 0 0 Z " fill="#2A2A2A" transform="translate(192,432)"/>
<path d="M0 0 C0.33 0.66 0.66 1.32 1 2 C0.22265625 3.9453125 0.22265625 3.9453125 -0.9375 6.125 C-1.31777344 6.84945312 -1.69804687 7.57390625 -2.08984375 8.3203125 C-2.39019531 8.87460937 -2.69054687 9.42890625 -3 10 C-3.33 10 -3.66 10 -4 10 C-4.19990835 6.40164967 -3.96808719 4.06146896 -2 1 C-1.34 0.67 -0.68 0.34 0 0 Z " fill="#272726" transform="translate(335,539)"/>
<path d="M0 0 C1.95582488 2.93373731 3.56224304 5.78216298 5 9 C4.67 9.66 4.34 10.32 4 11 C1.23636467 8.50381325 -0.63219364 6.80066568 -1 3 C-0.67 2.01 -0.34 1.02 0 0 Z " fill="#222121" transform="translate(679,516)"/>
<path d="M0 0 C0.82638376 2.89234315 1 4.88742431 1 8 C3.31 8.33 5.62 8.66 8 9 C8 9.33 8 9.66 8 10 C5.03 10 2.06 10 -1 10 C-2.31223496 6.06329512 -1.24296256 3.87511856 0 0 Z " fill="#393837" transform="translate(466,495)"/>
<path d="M0 0 C0.99 0 1.98 0 3 0 C3.66 1.65 4.32 3.3 5 5 C4.34 5.66 3.68 6.32 3 7 C2.67 6.34 2.34 5.68 2 5 C1.01 5.495 1.01 5.495 0 6 C-1 3 -1 3 0 0 Z " fill="#292828" transform="translate(665,528)"/>
<path d="M0 0 C0.33 0 0.66 0 1 0 C1.144375 0.7425 1.28875 1.485 1.4375 2.25 C1.93044449 4.89561831 1.93044449 4.89561831 2.625 7 C3.10218864 9.54500607 2.62260447 11.50958213 2 14 C1.67 14 1.34 14 1 14 C-0.20568053 9.32798795 -0.09382426 4.78503708 0 0 Z " fill="#373736" transform="translate(660,503)"/>
<path d="M0 0 C1.8125 1.375 1.8125 1.375 2.5625 4 C2.68625 5.175625 2.68625 5.175625 2.8125 6.375 C-0.1875 4.375 -3.1875 2.375 -6.1875 0.375 C-3.77466168 -0.48672797 -2.49284286 -0.71224082 0 0 Z " fill="#2A2928" transform="translate(631.1875,495.625)"/>
<path d="M0 0 C0.66 0 1.32 0 2 0 C5.07692308 5.41538462 5.07692308 5.41538462 4.6875 8.375 C4.460625 8.91125 4.23375 9.4475 4 10 C1.80902348 6.6659053 0.56545837 3.95820859 0 0 Z " fill="#222221" transform="translate(296,458)"/>
<path d="M0 0 C1.61949011 2.57213134 2.04408751 3.67669159 1.625 6.75 C1.41875 7.4925 1.2125 8.235 1 9 C0.34 9 -0.32 9 -1 9 C-1.33 9.66 -1.66 10.32 -2 11 C-1.125 3.375 -1.125 3.375 0 0 Z " fill="#1F1F1F" transform="translate(591,501)"/>
<path d="M0 0 C0 1.98 0 3.96 0 6 C-0.66 6 -1.32 6 -2 6 C-2 7.98 -2 9.96 -2 12 C-2.33 12 -2.66 12 -3 12 C-3 8.37 -3 4.74 -3 1 C-1 0 -1 0 0 0 Z " fill="#343332" transform="translate(438,460)"/>
<path d="M0 0 C0.33 0 0.66 0 1 0 C1 2.64 1 5.28 1 8 C0.01 8.495 0.01 8.495 -1 9 C-1.80967438 6.08517222 -2.21845993 4.53886783 -1.0625 1.6875 C-0.711875 1.130625 -0.36125 0.57375 0 0 Z " fill="#252424" transform="translate(176,585)"/>
<path d="M0 0 C0 0.99 0 1.98 0 3 C-3.81756824 4.37432457 -7.07255329 3.67975039 -11 3 C-11 2.67 -11 2.34 -11 2 C-9.5422647 1.664061 -8.08378894 1.33133376 -6.625 1 C-5.40683594 0.7215625 -5.40683594 0.7215625 -4.1640625 0.4375 C-2 0 -2 0 0 0 Z " fill="#2E2E2D" transform="translate(306,551)"/>
<path d="M0 0 C3.68266103 0.59950296 7.34543185 1.24758891 11 2 C11 2.33 11 2.66 11 3 C7.33519927 3.93750716 5.59943946 4.28668844 2.125 2.625 C1.42375 2.08875 0.7225 1.5525 0 1 C0 0.67 0 0.34 0 0 Z " fill="#2A2928" transform="translate(145,551)"/>
<path d="M0 0 C4.75 0.875 4.75 0.875 7 2 C7 2.66 7 3.32 7 4 C7.99 4.33 8.98 4.66 10 5 C6.05140217 4.4359146 3.29120954 3.2568294 0 1 C0 0.67 0 0.34 0 0 Z " fill="#262625" transform="translate(469,549)"/>
<path d="M0 0 C0.598125 0.20625 1.19625 0.4125 1.8125 0.625 C0.389375 1.553125 0.389375 1.553125 -1.0625 2.5 C-4.13195109 4.44470969 -4.13195109 4.44470969 -6.1875 6.625 C-5.875 4.25 -5.875 4.25 -5.1875 1.625 C-2.1875 -0.375 -2.1875 -0.375 0 0 Z " fill="#222221" transform="translate(861.1875,497.375)"/>
<path d="M0 0 C0.99 0.66 1.98 1.32 3 2 C1.5459375 2.433125 1.5459375 2.433125 0.0625 2.875 C-3.10664203 3.64214682 -3.10664203 3.64214682 -4 6 C-4 4.68 -4 3.36 -4 2 C-2.68 1.34 -1.36 0.68 0 0 Z " fill="#252425" transform="translate(155,490)"/>
<path d="M0 0 C3.3 0.33 6.6 0.66 10 1 C10 1.33 10 1.66 10 2 C6.37 2.33 2.74 2.66 -1 3 C-0.67 2.01 -0.34 1.02 0 0 Z " fill="#333332" transform="translate(160,488)"/>
<path d="M0 0 C2.35171131 0.59861742 4.6859378 1.26924352 7 2 C7.33 2.66 7.66 3.32 8 4 C5 5 5 5 2.3125 3.6875 C1.549375 3.130625 0.78625 2.57375 0 2 C0 1.34 0 0.68 0 0 Z " fill="#252523" transform="translate(632,483)"/>
<path d="M0 0 C2 1.5 2 1.5 4 4 C4.35800135 6.75871627 4.18660165 9.20097524 4 12 C3.67 12 3.34 12 3 12 C3 9.69 3 7.38 3 5 C2.34 5 1.68 5 1 5 C0.67 3.35 0.34 1.7 0 0 Z " fill="#2F2F2E" transform="translate(824,456)"/>
<path d="M0 0 C0.33 0 0.66 0 1 0 C1.3669579 6.48292295 1.3669579 6.48292295 -0.375 8.9375 C-2 10 -2 10 -4 10 C-3.34 8.68 -2.68 7.36 -2 6 C-1.34 6 -0.68 6 0 6 C0 4.02 0 2.04 0 0 Z " fill="#272525" transform="translate(285,587)"/>
<path d="M0 0 C0.66 0.66 1.32 1.32 2 2 C0.35 3.65 -1.3 5.3 -3 7 C-3.66 6.67 -4.32 6.34 -5 6 C-3.35 4.02 -1.7 2.04 0 0 Z " fill="#252422" transform="translate(645,543)"/>
<path d="M0 0 C0.66 0 1.32 0 2 0 C1.45773019 3.79588866 -0.20127563 5.47211993 -3 8 C-2.45276317 4.62537285 -1.9451 2.91765 0 0 Z " fill="#1F1E1E" transform="translate(558,525)"/>
<path d="M0 0 C0.33 0 0.66 0 1 0 C1 4.29 1 8.58 1 13 C0.67 13 0.34 13 0 13 C0 8.71 0 4.42 0 0 Z " fill="#414140" transform="translate(371,499)"/>
<path d="M0 0 C0.33 0 0.66 0 1 0 C1 3.63 1 7.26 1 11 C0.67 11 0.34 11 0 11 C0 7.37 0 3.74 0 0 Z " fill="#464645" transform="translate(371,540)"/>
<path d="M0 0 C0.33 0 0.66 0 1 0 C1 3.3 1 6.6 1 10 C0.67 10 0.34 10 0 10 C0 6.7 0 3.4 0 0 Z " fill="#41403F" transform="translate(371,516)"/>
<path d="M0 0 C2.475 0.495 2.475 0.495 5 1 C4.67 1.66 4.34 2.32 4 3 C2.68 2.01 1.36 1.02 0 0 Z " fill="#474546" transform="translate(240,437)"/>
<path d="M0 0 C0.99 0.33 1.98 0.66 3 1 C1.68 1.33 0.36 1.66 -1 2 C-0.67 1.34 -0.34 0.68 0 0 Z " fill="#414040" transform="translate(305,500)"/>
<path d="M0 0 C1.98 0 3.96 0 6 0 C6 0.33 6 0.66 6 1 C4.02 1 2.04 1 0 1 C0 0.67 0 0.34 0 0 Z " fill="#494747" transform="translate(552,481)"/>
<path d="M0 0 C0.99 0.33 1.98 0.66 3 1 C2.01 1.33 1.02 1.66 0 2 C0 1.34 0 0.68 0 0 Z " fill="#404040" transform="translate(308,502)"/>
<path d="M0 0 C0.33 0 0.66 0 1 0 C1 1.65 1 3.3 1 5 C0.67 5 0.34 5 0 5 C0 3.35 0 1.7 0 0 Z " fill="#454544" transform="translate(371,485)"/>
<path d="M0 0 C0.66 0 1.32 0 2 0 C1.67 0.99 1.34 1.98 1 3 C0.67 2.01 0.34 1.02 0 0 Z " fill="#474645" transform="translate(272,453)"/>
<path d="M0 0 C0.99 0 1.98 0 3 0 C2.67 0.99 2.34 1.98 2 3 C2 2.34 2 1.68 2 1 C1.34 0.67 0.68 0.34 0 0 Z " fill="#464544" transform="translate(226,437)"/>
<path d="M0 0 C4 1 4 1 4 1 Z " fill="#444343" transform="translate(212,599)"/>
<path d="M0 0 C1.485 0.99 1.485 0.99 3 2 C2.01 2 1.02 2 0 2 C0 1.34 0 0.68 0 0 Z " fill="#403E3F" transform="translate(874,498)"/>
<path d="M0 0 C3 1 3 1 3 1 Z " fill="#434242" transform="translate(243,599)"/>
<path d="" fill="#464545" transform="translate(0,0)"/>
<path d="M0 0 C3 1 3 1 3 1 Z " fill="#444343" transform="translate(240,571)"/>
<path d="M0 0 C0.66 0.66 1.32 1.32 2 2 C1.34 2 0.68 2 0 2 C0 1.34 0 0.68 0 0 Z " fill="#504F4E" transform="translate(383,554)"/>
<path d="M0 0 C0.99 0.495 0.99 0.495 2 1 C1.01 1.495 1.01 1.495 0 2 C0 1.34 0 0.68 0 0 Z " fill="#4B4A49" transform="translate(680,549)"/>
<path d="M0 0 C0.66 0.66 1.32 1.32 2 2 C1.34 2 0.68 2 0 2 C0 1.34 0 0.68 0 0 Z " fill="#42403F" transform="translate(593,541)"/>
<path d="M0 0 C0.66 0.66 1.32 1.32 2 2 C1.34 2 0.68 2 0 2 C0 1.34 0 0.68 0 0 Z " fill="#403F3F" transform="translate(642,528)"/>
<path d="" fill="#474544" transform="translate(0,0)"/>
<path d="M0 0 C0.99 0.495 0.99 0.495 2 1 C1.01 1.495 1.01 1.495 0 2 C0 1.34 0 0.68 0 0 Z " fill="#43423F" transform="translate(595,488)"/>
<path d="" fill="#464746" transform="translate(0,0)"/>
<path d="M0 0 C0.99 0.495 0.99 0.495 2 1 C1.01 1.495 1.01 1.495 0 2 C0 1.34 0 0.68 0 0 Z " fill="#464544" transform="translate(848,482)"/>
<path d="M0 0 C3 1 3 1 3 1 Z " fill="#424341" transform="translate(771,481)"/>
<path d="M0 0 C3 1 3 1 3 1 Z " fill="#484846" transform="translate(547,481)"/>
<path d="M0 0 C3 1 3 1 3 1 Z " fill="#484845" transform="translate(537,481)"/>
<path d="" fill="#4A4847" transform="translate(0,0)"/>
<path d="M0 0 C0.66 0 1.32 0 2 0 C1.67 0.66 1.34 1.32 1 2 C0.67 1.34 0.34 0.68 0 0 Z " fill="#4E504E" transform="translate(432,464)"/>
<path d="M0 0 C3 1 3 1 3 1 Z " fill="#4D4C4C" transform="translate(688,456)"/>
<path d="M0 0 C0.99 0.495 0.99 0.495 2 1 C1.01 1.495 1.01 1.495 0 2 C0 1.34 0 0.68 0 0 Z " fill="#565555" transform="translate(368,456)"/>
<path d="M0 0 C0.66 0 1.32 0 2 0 C1.67 0.66 1.34 1.32 1 2 C0.67 1.34 0.34 0.68 0 0 Z " fill="#514F4F" transform="translate(176,441)"/>
<path d="M0 0 C2 1 2 1 2 1 Z " fill="#424142" transform="translate(260,599)"/>
<path d="M0 0 C2 1 2 1 2 1 Z " fill="#404040" transform="translate(236,599)"/>
<path d="M0 0 C2 1 2 1 2 1 Z " fill="#434342" transform="translate(228,599)"/>
<path d="M0 0 C2 1 2 1 2 1 Z " fill="#434342" transform="translate(220,599)"/>
<path d="" fill="#4B4A4A" transform="translate(0,0)"/>
<path d="" fill="#494849" transform="translate(0,0)"/>
<path d="" fill="#484748" transform="translate(0,0)"/>
<path d="M0 0 C2 1 2 1 2 1 Z " fill="#444344" transform="translate(208,581)"/>
<path d="" fill="#424242" transform="translate(0,0)"/>
<path d="" fill="#454342" transform="translate(0,0)"/>
<path d="M0 0 C2 1 2 1 2 1 Z " fill="#464644" transform="translate(294,571)"/>
<path d="M0 0 C2 1 2 1 2 1 Z " fill="#454442" transform="translate(270,571)"/>
<path d="M0 0 C2 1 2 1 2 1 Z " fill="#434242" transform="translate(246,571)"/>
<path d="M0 0 C2 1 2 1 2 1 Z " fill="#444442" transform="translate(230,571)"/>
<path d="M0 0 C2 1 2 1 2 1 Z " fill="#454343" transform="translate(222,571)"/>
<path d="M0 0 C2 1 2 1 2 1 Z " fill="#454442" transform="translate(198,571)"/>
<path d="M0 0 C2 1 2 1 2 1 Z " fill="#454442" transform="translate(182,571)"/>
<path d="M0 0 C2 1 2 1 2 1 Z " fill="#4E4D4B" transform="translate(861,556)"/>
<path d="M0 0 C2 1 2 1 2 1 Z " fill="#4C4B4A" transform="translate(488,556)"/>
<path d="M0 0 C2 1 2 1 2 1 Z " fill="#4F504E" transform="translate(537,555)"/>
<path d="" fill="#50504E" transform="translate(0,0)"/>
<path d="" fill="#444444" transform="translate(0,0)"/>
<path d="" fill="#4A4947" transform="translate(0,0)"/>
<path d="" fill="#555354" transform="translate(0,0)"/>
<path d="" fill="#41403F" transform="translate(0,0)"/>
<path d="" fill="#413E3F" transform="translate(0,0)"/>
<path d="" fill="#414141" transform="translate(0,0)"/>
<path d="M0 0 C2 1 2 1 2 1 Z " fill="#41403F" transform="translate(483,527)"/>
<path d="" fill="#414140" transform="translate(0,0)"/>
<path d="" fill="#3A393A" transform="translate(0,0)"/>
<path d="" fill="#3D3A3A" transform="translate(0,0)"/>
<path d="" fill="#434141" transform="translate(0,0)"/>
<path d="" fill="#3F3F40" transform="translate(0,0)"/>
<path d="" fill="#3F3D3F" transform="translate(0,0)"/>
<path d="" fill="#3F3E3E" transform="translate(0,0)"/>
<path d="" fill="#464544" transform="translate(0,0)"/>
<path d="" fill="#403F3F" transform="translate(0,0)"/>
<path d="" fill="#555556" transform="translate(0,0)"/>
<path d="" fill="#3E3E3D" transform="translate(0,0)"/>
<path d="" fill="#403F3F" transform="translate(0,0)"/>
<path d="" fill="#414140" transform="translate(0,0)"/>
<path d="M0 0 C2 1 2 1 2 1 Z " fill="#3F3F3E" transform="translate(877,500)"/>
<path d="M0 0 C2 1 2 1 2 1 Z " fill="#3D3D3C" transform="translate(797,500)"/>
<path d="M0 0 C2 1 2 1 2 1 Z " fill="#464444" transform="translate(146,499)"/>
<path d="M0 0 C2 1 2 1 2 1 Z " fill="#464443" transform="translate(158,492)"/>
<path d="M0 0 C2 1 2 1 2 1 Z " fill="#474748" transform="translate(856,481)"/>
<path d="M0 0 C2 1 2 1 2 1 Z " fill="#464544" transform="translate(823,481)"/>
<path d="M0 0 C2 1 2 1 2 1 Z " fill="#494744" transform="translate(570,481)"/>
<path d="M0 0 C2 1 2 1 2 1 Z " fill="#494846" transform="translate(563,481)"/>
<path d="M0 0 C2 1 2 1 2 1 Z " fill="#474745" transform="translate(872,480)"/>
<path d="M0 0 C2 1 2 1 2 1 Z " fill="#474646" transform="translate(614,480)"/>
<path d="M0 0 C2 1 2 1 2 1 Z " fill="#454545" transform="translate(483,480)"/>
<path d="" fill="#494948" transform="translate(0,0)"/>
<path d="M0 0 C2 1 2 1 2 1 Z " fill="#454343" transform="translate(720,477)"/>
<path d="M0 0 C2 1 2 1 2 1 Z " fill="#444241" transform="translate(692,477)"/>
<path d="" fill="#4A4B48" transform="translate(0,0)"/>
<path d="M0 0 C2 1 2 1 2 1 Z " fill="#4A4A4A" transform="translate(160,472)"/>
<path d="" fill="#4C4B4A" transform="translate(0,0)"/>
<path d="M0 0 C2 1 2 1 2 1 Z " fill="#494848" transform="translate(725,456)"/>
<path d="M0 0 C2 1 2 1 2 1 Z " fill="#484747" transform="translate(264,446)"/>
<path d="" fill="#767878" transform="translate(0,0)"/>
<path d="" fill="#787A78" transform="translate(0,0)"/>
<path d="" fill="#767775" transform="translate(0,0)"/>
<path d="" fill="#838284" transform="translate(0,0)"/>
<path d="" fill="#787A7A" transform="translate(0,0)"/>
<path d="" fill="#888886" transform="translate(0,0)"/>
<path d="" fill="#828283" transform="translate(0,0)"/>
<path d="" fill="#7F7F80" transform="translate(0,0)"/>
<path d="" fill="#7F807F" transform="translate(0,0)"/>
<path d="" fill="#7B7B7C" transform="translate(0,0)"/>
<path d="" fill="#454644" transform="translate(0,0)"/>
<path d="" fill="#434042" transform="translate(0,0)"/>
<path d="" fill="#414042" transform="translate(0,0)"/>
<path d="" fill="#454242" transform="translate(0,0)"/>
<path d="" fill="#454444" transform="translate(0,0)"/>
<path d="" fill="#444444" transform="translate(0,0)"/>
<path d="" fill="#4E4C4B" transform="translate(0,0)"/>
<path d="" fill="#484648" transform="translate(0,0)"/>
<path d="" fill="#4D4B4C" transform="translate(0,0)"/>
<path d="" fill="#444343" transform="translate(0,0)"/>
<path d="" fill="#444443" transform="translate(0,0)"/>
<path d="" fill="#454141" transform="translate(0,0)"/>
<path d="" fill="#444343" transform="translate(0,0)"/>
<path d="" fill="#434442" transform="translate(0,0)"/>
<path d="" fill="#444344" transform="translate(0,0)"/>
<path d="" fill="#464443" transform="translate(0,0)"/>
<path d="" fill="#444442" transform="translate(0,0)"/>
<path d="" fill="#444343" transform="translate(0,0)"/>
<path d="" fill="#434242" transform="translate(0,0)"/>
<path d="" fill="#444342" transform="translate(0,0)"/>
<path d="" fill="#444343" transform="translate(0,0)"/>
<path d="" fill="#444343" transform="translate(0,0)"/>
<path d="" fill="#444443" transform="translate(0,0)"/>
<path d="" fill="#454441" transform="translate(0,0)"/>
<path d="" fill="#434041" transform="translate(0,0)"/>
<path d="" fill="#444342" transform="translate(0,0)"/>
<path d="" fill="#444443" transform="translate(0,0)"/>
<path d="" fill="#464443" transform="translate(0,0)"/>
<path d="" fill="#474544" transform="translate(0,0)"/>
<path d="" fill="#464646" transform="translate(0,0)"/>
<path d="" fill="#504F4F" transform="translate(0,0)"/>
<path d="" fill="#454746" transform="translate(0,0)"/>
<path d="" fill="#4E4D4D" transform="translate(0,0)"/>
<path d="" fill="#474846" transform="translate(0,0)"/>
<path d="" fill="#504F4D" transform="translate(0,0)"/>
<path d="" fill="#4E4E4E" transform="translate(0,0)"/>
<path d="" fill="#4F4D4C" transform="translate(0,0)"/>
<path d="" fill="#4B4B4A" transform="translate(0,0)"/>
<path d="" fill="#4B4A49" transform="translate(0,0)"/>
<path d="" fill="#4E4B4B" transform="translate(0,0)"/>
<path d="" fill="#4B4A49" transform="translate(0,0)"/>
<path d="" fill="#494647" transform="translate(0,0)"/>
<path d="" fill="#50514F" transform="translate(0,0)"/>
<path d="" fill="#4E4E4B" transform="translate(0,0)"/>
<path d="" fill="#51504E" transform="translate(0,0)"/>
<path d="" fill="#4E4E4D" transform="translate(0,0)"/>
<path d="" fill="#4D4D49" transform="translate(0,0)"/>
<path d="" fill="#505150" transform="translate(0,0)"/>
<path d="" fill="#535151" transform="translate(0,0)"/>
<path d="" fill="#50504F" transform="translate(0,0)"/>
<path d="" fill="#4F4E4A" transform="translate(0,0)"/>
<path d="" fill="#50514F" transform="translate(0,0)"/>
<path d="" fill="#50524F" transform="translate(0,0)"/>
<path d="" fill="#525251" transform="translate(0,0)"/>
<path d="" fill="#50504E" transform="translate(0,0)"/>
<path d="" fill="#4E4D4C" transform="translate(0,0)"/>
<path d="" fill="#4B4A49" transform="translate(0,0)"/>
<path d="" fill="#504F4E" transform="translate(0,0)"/>
<path d="" fill="#535352" transform="translate(0,0)"/>
<path d="" fill="#434344" transform="translate(0,0)"/>
<path d="" fill="#484748" transform="translate(0,0)"/>
<path d="" fill="#484645" transform="translate(0,0)"/>
<path d="" fill="#424040" transform="translate(0,0)"/>
<path d="" fill="#4C4C49" transform="translate(0,0)"/>
<path d="" fill="#4D4C4B" transform="translate(0,0)"/>
<path d="" fill="#535253" transform="translate(0,0)"/>
<path d="" fill="#474745" transform="translate(0,0)"/>
<path d="" fill="#494948" transform="translate(0,0)"/>
<path d="" fill="#474545" transform="translate(0,0)"/>
<path d="" fill="#494A49" transform="translate(0,0)"/>
<path d="" fill="#4B4C4A" transform="translate(0,0)"/>
<path d="" fill="#454344" transform="translate(0,0)"/>
<path d="" fill="#464845" transform="translate(0,0)"/>
<path d="" fill="#4B4C4B" transform="translate(0,0)"/>
<path d="" fill="#494748" transform="translate(0,0)"/>
<path d="" fill="#525051" transform="translate(0,0)"/>
<path d="" fill="#454546" transform="translate(0,0)"/>
<path d="" fill="#454643" transform="translate(0,0)"/>
<path d="" fill="#484847" transform="translate(0,0)"/>
<path d="" fill="#464546" transform="translate(0,0)"/>
<path d="" fill="#424141" transform="translate(0,0)"/>
<path d="" fill="#494647" transform="translate(0,0)"/>
<path d="" fill="#42413F" transform="translate(0,0)"/>
<path d="" fill="#414140" transform="translate(0,0)"/>
<path d="" fill="#3F3F3E" transform="translate(0,0)"/>
<path d="" fill="#404140" transform="translate(0,0)"/>
<path d="" fill="#434141" transform="translate(0,0)"/>
<path d="" fill="#454443" transform="translate(0,0)"/>
<path d="" fill="#545453" transform="translate(0,0)"/>
<path d="" fill="#444343" transform="translate(0,0)"/>
<path d="" fill="#444543" transform="translate(0,0)"/>
<path d="" fill="#3F3E3E" transform="translate(0,0)"/>
<path d="" fill="#3F3F3E" transform="translate(0,0)"/>
<path d="" fill="#423F40" transform="translate(0,0)"/>
<path d="" fill="#403E3D" transform="translate(0,0)"/>
<path d="" fill="#454141" transform="translate(0,0)"/>
<path d="" fill="#434140" transform="translate(0,0)"/>
<path d="" fill="#424340" transform="translate(0,0)"/>
<path d="" fill="#444443" transform="translate(0,0)"/>
<path d="" fill="#464442" transform="translate(0,0)"/>
<path d="" fill="#535454" transform="translate(0,0)"/>
<path d="" fill="#403E41" transform="translate(0,0)"/>
<path d="" fill="#444242" transform="translate(0,0)"/>
<path d="" fill="#3F3F3E" transform="translate(0,0)"/>
<path d="" fill="#515150" transform="translate(0,0)"/>
<path d="" fill="#403E3E" transform="translate(0,0)"/>
<path d="" fill="#464544" transform="translate(0,0)"/>
<path d="" fill="#403E3D" transform="translate(0,0)"/>
<path d="" fill="#424244" transform="translate(0,0)"/>
<path d="" fill="#525150" transform="translate(0,0)"/>
<path d="" fill="#3A3B3A" transform="translate(0,0)"/>
<path d="" fill="#403E3E" transform="translate(0,0)"/>
<path d="" fill="#444243" transform="translate(0,0)"/>
<path d="" fill="#3D3E3D" transform="translate(0,0)"/>
<path d="" fill="#3F3E3E" transform="translate(0,0)"/>
<path d="" fill="#403E3D" transform="translate(0,0)"/>
<path d="" fill="#40413E" transform="translate(0,0)"/>
<path d="" fill="#444342" transform="translate(0,0)"/>
<path d="" fill="#414241" transform="translate(0,0)"/>
<path d="" fill="#3F3E3E" transform="translate(0,0)"/>
<path d="" fill="#434241" transform="translate(0,0)"/>
<path d="" fill="#787978" transform="translate(0,0)"/>
<path d="" fill="#424140" transform="translate(0,0)"/>
<path d="" fill="#43433F" transform="translate(0,0)"/>
<path d="" fill="#424240" transform="translate(0,0)"/>
<path d="" fill="#515151" transform="translate(0,0)"/>
<path d="" fill="#3F403D" transform="translate(0,0)"/>
<path d="" fill="#3E3E3C" transform="translate(0,0)"/>
<path d="" fill="#41413F" transform="translate(0,0)"/>
<path d="" fill="#3C3E3C" transform="translate(0,0)"/>
<path d="" fill="#42403F" transform="translate(0,0)"/>
<path d="" fill="#424141" transform="translate(0,0)"/>
<path d="" fill="#3C3B3B" transform="translate(0,0)"/>
<path d="" fill="#3D3D3D" transform="translate(0,0)"/>
<path d="" fill="#414040" transform="translate(0,0)"/>
<path d="" fill="#414041" transform="translate(0,0)"/>
<path d="" fill="#505150" transform="translate(0,0)"/>
<path d="" fill="#3F3D3C" transform="translate(0,0)"/>
<path d="" fill="#3D3A3D" transform="translate(0,0)"/>
<path d="" fill="#424141" transform="translate(0,0)"/>
<path d="" fill="#3F413E" transform="translate(0,0)"/>
<path d="" fill="#454848" transform="translate(0,0)"/>
<path d="" fill="#3F3F41" transform="translate(0,0)"/>
<path d="" fill="#413E3F" transform="translate(0,0)"/>
<path d="" fill="#413F3F" transform="translate(0,0)"/>
<path d="" fill="#403D3B" transform="translate(0,0)"/>
<path d="" fill="#444342" transform="translate(0,0)"/>
<path d="" fill="#3F3C3E" transform="translate(0,0)"/>
<path d="" fill="#444341" transform="translate(0,0)"/>
<path d="" fill="#434142" transform="translate(0,0)"/>
<path d="" fill="#454645" transform="translate(0,0)"/>
<path d="" fill="#484747" transform="translate(0,0)"/>
<path d="" fill="#3F3C3B" transform="translate(0,0)"/>
<path d="" fill="#423F40" transform="translate(0,0)"/>
<path d="" fill="#404240" transform="translate(0,0)"/>
<path d="" fill="#424342" transform="translate(0,0)"/>
<path d="" fill="#434242" transform="translate(0,0)"/>
<path d="" fill="#535253" transform="translate(0,0)"/>
<path d="" fill="#3D3D3E" transform="translate(0,0)"/>
<path d="" fill="#393A39" transform="translate(0,0)"/>
<path d="" fill="#3B3B3C" transform="translate(0,0)"/>
<path d="" fill="#413F3E" transform="translate(0,0)"/>
<path d="" fill="#3C3C3C" transform="translate(0,0)"/>
<path d="" fill="#464745" transform="translate(0,0)"/>
<path d="" fill="#403D3D" transform="translate(0,0)"/>
<path d="" fill="#3F3E3B" transform="translate(0,0)"/>
<path d="" fill="#434340" transform="translate(0,0)"/>
<path d="" fill="#3F3E3E" transform="translate(0,0)"/>
<path d="" fill="#444344" transform="translate(0,0)"/>
<path d="" fill="#403E3D" transform="translate(0,0)"/>
<path d="" fill="#404240" transform="translate(0,0)"/>
<path d="" fill="#3F3E3E" transform="translate(0,0)"/>
<path d="" fill="#3D3B3C" transform="translate(0,0)"/>
<path d="" fill="#403F3F" transform="translate(0,0)"/>
<path d="" fill="#41413E" transform="translate(0,0)"/>
<path d="" fill="#454140" transform="translate(0,0)"/>
<path d="" fill="#3F3F3C" transform="translate(0,0)"/>
<path d="" fill="#3C3C3D" transform="translate(0,0)"/>
<path d="" fill="#3E403F" transform="translate(0,0)"/>
<path d="" fill="#434442" transform="translate(0,0)"/>
<path d="" fill="#403F3C" transform="translate(0,0)"/>
<path d="" fill="#3D393A" transform="translate(0,0)"/>
<path d="" fill="#3D3C3A" transform="translate(0,0)"/>
<path d="" fill="#42413E" transform="translate(0,0)"/>
<path d="" fill="#413E3D" transform="translate(0,0)"/>
<path d="" fill="#3F3D3F" transform="translate(0,0)"/>
<path d="" fill="#3F3F3F" transform="translate(0,0)"/>
<path d="" fill="#423F3F" transform="translate(0,0)"/>
<path d="" fill="#3D3D3B" transform="translate(0,0)"/>
<path d="" fill="#3D3C3C" transform="translate(0,0)"/>
<path d="" fill="#413E40" transform="translate(0,0)"/>
<path d="" fill="#3C3F3B" transform="translate(0,0)"/>
<path d="" fill="#3E3D3C" transform="translate(0,0)"/>
<path d="" fill="#403D3E" transform="translate(0,0)"/>
<path d="" fill="#3D3D3C" transform="translate(0,0)"/>
<path d="" fill="#424040" transform="translate(0,0)"/>
<path d="" fill="#403F3F" transform="translate(0,0)"/>
<path d="" fill="#40403E" transform="translate(0,0)"/>
<path d="" fill="#3D3E3C" transform="translate(0,0)"/>
<path d="" fill="#4E4E4E" transform="translate(0,0)"/>
<path d="" fill="#3F3F3E" transform="translate(0,0)"/>
<path d="" fill="#403F3D" transform="translate(0,0)"/>
<path d="" fill="#40413F" transform="translate(0,0)"/>
<path d="" fill="#434242" transform="translate(0,0)"/>
<path d="" fill="#41433F" transform="translate(0,0)"/>
<path d="" fill="#3F403C" transform="translate(0,0)"/>
<path d="" fill="#474645" transform="translate(0,0)"/>
<path d="" fill="#454544" transform="translate(0,0)"/>
<path d="" fill="#454544" transform="translate(0,0)"/>
<path d="" fill="#444445" transform="translate(0,0)"/>
<path d="" fill="#434141" transform="translate(0,0)"/>
<path d="" fill="#484646" transform="translate(0,0)"/>
<path d="" fill="#444744" transform="translate(0,0)"/>
<path d="" fill="#434442" transform="translate(0,0)"/>
<path d="" fill="#474745" transform="translate(0,0)"/>
<path d="" fill="#484445" transform="translate(0,0)"/>
<path d="" fill="#4D4E4E" transform="translate(0,0)"/>
<path d="" fill="#414143" transform="translate(0,0)"/>
<path d="" fill="#4A4648" transform="translate(0,0)"/>
<path d="" fill="#423F3E" transform="translate(0,0)"/>
<path d="" fill="#494746" transform="translate(0,0)"/>
<path d="" fill="#474746" transform="translate(0,0)"/>
<path d="" fill="#454545" transform="translate(0,0)"/>
<path d="" fill="#454744" transform="translate(0,0)"/>
<path d="" fill="#464545" transform="translate(0,0)"/>
<path d="" fill="#444441" transform="translate(0,0)"/>
<path d="" fill="#464644" transform="translate(0,0)"/>
<path d="" fill="#444642" transform="translate(0,0)"/>
<path d="" fill="#434242" transform="translate(0,0)"/>
<path d="" fill="#474646" transform="translate(0,0)"/>
<path d="" fill="#4A4548" transform="translate(0,0)"/>
<path d="" fill="#464541" transform="translate(0,0)"/>
<path d="" fill="#434241" transform="translate(0,0)"/>
<path d="" fill="#464645" transform="translate(0,0)"/>
<path d="" fill="#464445" transform="translate(0,0)"/>
<path d="" fill="#484744" transform="translate(0,0)"/>
<path d="" fill="#494A47" transform="translate(0,0)"/>
<path d="" fill="#484745" transform="translate(0,0)"/>
<path d="" fill="#494747" transform="translate(0,0)"/>
<path d="" fill="#474644" transform="translate(0,0)"/>
<path d="" fill="#4A4947" transform="translate(0,0)"/>
<path d="" fill="#464747" transform="translate(0,0)"/>
<path d="" fill="#464444" transform="translate(0,0)"/>
<path d="" fill="#484746" transform="translate(0,0)"/>
<path d="" fill="#464545" transform="translate(0,0)"/>
<path d="" fill="#464946" transform="translate(0,0)"/>
<path d="" fill="#464646" transform="translate(0,0)"/>
<path d="" fill="#424241" transform="translate(0,0)"/>
<path d="" fill="#423F43" transform="translate(0,0)"/>
<path d="" fill="#4A4949" transform="translate(0,0)"/>
<path d="" fill="#444545" transform="translate(0,0)"/>
<path d="" fill="#4D4C4D" transform="translate(0,0)"/>
<path d="" fill="#484846" transform="translate(0,0)"/>
<path d="" fill="#50504F" transform="translate(0,0)"/>
<path d="" fill="#41423F" transform="translate(0,0)"/>
<path d="" fill="#484242" transform="translate(0,0)"/>
<path d="" fill="#464544" transform="translate(0,0)"/>
<path d="" fill="#494746" transform="translate(0,0)"/>
<path d="" fill="#454643" transform="translate(0,0)"/>
<path d="" fill="#494949" transform="translate(0,0)"/>
<path d="" fill="#4A4B48" transform="translate(0,0)"/>
<path d="" fill="#4A4947" transform="translate(0,0)"/>
<path d="" fill="#4C4B4B" transform="translate(0,0)"/>
<path d="" fill="#4F504E" transform="translate(0,0)"/>
<path d="" fill="#494848" transform="translate(0,0)"/>
<path d="" fill="#494746" transform="translate(0,0)"/>
<path d="" fill="#4D504D" transform="translate(0,0)"/>
<path d="" fill="#5C595A" transform="translate(0,0)"/>
<path d="" fill="#484949" transform="translate(0,0)"/>
<path d="" fill="#514F50" transform="translate(0,0)"/>
<path d="" fill="#525050" transform="translate(0,0)"/>
<path d="" fill="#4F4F4F" transform="translate(0,0)"/>
<path d="" fill="#525250" transform="translate(0,0)"/>
<path d="" fill="#52514F" transform="translate(0,0)"/>
<path d="" fill="#4C4B4A" transform="translate(0,0)"/>
<path d="" fill="#535351" transform="translate(0,0)"/>
<path d="" fill="#555353" transform="translate(0,0)"/>
<path d="" fill="#525150" transform="translate(0,0)"/>
<path d="" fill="#545554" transform="translate(0,0)"/>
<path d="" fill="#505050" transform="translate(0,0)"/>
<path d="" fill="#4F4E50" transform="translate(0,0)"/>
<path d="" fill="#494847" transform="translate(0,0)"/>
<path d="" fill="#555554" transform="translate(0,0)"/>
<path d="" fill="#4F4E4F" transform="translate(0,0)"/>
<path d="" fill="#585856" transform="translate(0,0)"/>
<path d="" fill="#565755" transform="translate(0,0)"/>
<path d="" fill="#4B4B49" transform="translate(0,0)"/>
<path d="" fill="#534F50" transform="translate(0,0)"/>
<path d="" fill="#4A4C4A" transform="translate(0,0)"/>
<path d="" fill="#494A49" transform="translate(0,0)"/>
<path d="" fill="#49494A" transform="translate(0,0)"/>
<path d="" fill="#4C4948" transform="translate(0,0)"/>
<path d="" fill="#494A48" transform="translate(0,0)"/>
<path d="" fill="#4C4B48" transform="translate(0,0)"/>
<path d="" fill="#4B4A4A" transform="translate(0,0)"/>
<path d="" fill="#4F4C49" transform="translate(0,0)"/>
<path d="" fill="#51514E" transform="translate(0,0)"/>
<path d="" fill="#504F4C" transform="translate(0,0)"/>
<path d="" fill="#484746" transform="translate(0,0)"/>
<path d="" fill="#454444" transform="translate(0,0)"/>
<path d="" fill="#494747" transform="translate(0,0)"/>
<path d="" fill="#474745" transform="translate(0,0)"/>
<path d="" fill="#454443" transform="translate(0,0)"/>
<path d="" fill="#4F514F" transform="translate(0,0)"/>
<path d="" fill="#515150" transform="translate(0,0)"/>
<path d="" fill="#515150" transform="translate(0,0)"/>
<path d="" fill="#52524F" transform="translate(0,0)"/>
<path d="" fill="#808081" transform="translate(0,0)"/>
<path d="" fill="#555552" transform="translate(0,0)"/>
<path d="" fill="#585956" transform="translate(0,0)"/>
<path d="" fill="#4D4D4D" transform="translate(0,0)"/>
<path d="" fill="#565555" transform="translate(0,0)"/>
<path d="" fill="#7E7E7F" transform="translate(0,0)"/>
<path d="" fill="#888A8C" transform="translate(0,0)"/>
<path d="" fill="#838485" transform="translate(0,0)"/>
<path d="" fill="#828282" transform="translate(0,0)"/>
<path d="" fill="#838686" transform="translate(0,0)"/>
<path d="" fill="#818180" transform="translate(0,0)"/>
<path d="" fill="#817F81" transform="translate(0,0)"/>
<path d="" fill="#818383" transform="translate(0,0)"/>
<path d="" fill="#848586" transform="translate(0,0)"/>
<path d="" fill="#838283" transform="translate(0,0)"/>
<path d="" fill="#848486" transform="translate(0,0)"/>
</svg>
